<svg width="43" height="43" viewBox="0 0 43 43" fill="none" xmlns="http://www.w3.org/2000/svg">
<mask id="mask0_1233_93" style="mask-type:luminance" maskUnits="userSpaceOnUse" x="0" y="0" width="43" height="43">
<path d="M43 0H0V42.9866H43V0Z" fill="white"/>
</mask>
<g mask="url(#mask0_1233_93)">
<mask id="mask1_1233_93" style="mask-type:luminance" maskUnits="userSpaceOnUse" x="0" y="0" width="43" height="43">
<path d="M43 0H0V42.9866H43V0Z" fill="white"/>
</mask>
<g mask="url(#mask1_1233_93)">
<path d="M18.1218 34.8474C18.5785 35.3032 18.8203 35.853 18.9547 36.4027C19.1159 37.0195 19.2771 37.6497 19.183 38.3067C18.9681 39.8352 18.2696 41.0956 17.0337 42.0073C16.6844 42.2621 16.2814 42.4632 15.8516 42.6107C15.2605 42.8118 14.656 42.9727 14.0515 42.9459C13.2992 42.9057 12.5604 42.7582 11.8485 42.3962C11.0022 41.9671 10.3574 41.3503 9.83346 40.5995C9.55136 40.1838 9.39016 39.6877 9.22896 39.1916C9.02746 38.5748 9.08119 37.9715 9.05432 37.3681C9.04089 37.1133 9.09462 36.8854 9.21552 36.6575C9.33642 36.4027 9.34986 36.1077 9.48419 35.8262C9.77972 35.2362 10.1156 34.6865 10.6126 34.244C10.8813 34.0027 11.0156 33.7747 10.9619 33.3859C10.8813 32.7021 10.7604 32.0182 10.6126 31.3478C10.4783 30.7177 10.3842 30.0607 10.2633 29.4305C10.1559 28.8271 10.0484 28.2103 9.92749 27.6204C9.80659 27.0438 9.73942 26.4539 9.61852 25.8773C9.48419 25.2605 9.29612 24.6303 9.29612 23.9868C9.29612 23.799 9.26926 23.6247 9.17522 23.4638C9.10806 23.3432 9.08119 23.1957 9.08119 23.0482C9.08119 22.713 8.96029 22.3912 8.91999 22.0828C8.83939 21.466 8.63789 20.8761 8.61102 20.2593C8.59759 20.0313 8.57072 19.8034 8.46326 19.6023C8.39609 19.4682 8.38266 19.3073 8.38266 19.1598C8.36922 18.8648 8.35579 18.5699 8.22146 18.3017C8.14086 18.1408 8.18116 17.9397 8.14086 17.7654C7.97966 17.0815 7.93936 16.3843 7.73786 15.7139C7.69756 15.5798 7.68413 15.4323 7.68413 15.2848C7.67069 14.6815 7.44233 14.1049 7.37516 13.5016C7.32143 13.0859 7.29456 12.6166 7.14679 12.2278C6.93186 11.6781 6.94529 11.1015 6.8244 10.5652C6.67663 9.92158 6.47513 9.26458 6.48856 8.58076C6.48856 8.44668 6.47513 8.3126 6.39453 8.19193C6.36766 8.1517 6.32736 8.09807 6.32736 8.04444C6.31393 7.40085 6.0587 6.81089 6.03183 6.1807C6.0184 5.95276 6.0184 5.72482 5.88406 5.5237C5.8572 5.48348 5.83033 5.42985 5.83033 5.38962C5.87063 4.79966 5.58853 4.26333 5.56166 3.68678C5.56166 3.23091 5.36017 2.82866 5.293 2.3996C5.2527 2.17166 5.03777 2.01076 4.74223 2.01076C3.53324 2.02417 2.32424 1.99735 1.10181 2.02417C0.53761 2.02417 0.161477 1.60852 0.0137111 1.15264C-0.0668887 0.85766 0.134611 0.616313 0.29581 0.442006C0.49731 0.214067 0.765976 0.0263531 1.10181 0.0263531C2.27051 0.0263531 3.45264 -0.0272796 4.62133 0.0397613C5.42733 0.0799858 6.15273 0.388374 6.69006 1.07219C7.13336 1.64874 7.32143 2.27893 7.34829 2.97615C7.36173 3.16386 7.38859 3.33817 7.48263 3.49907C7.50949 3.5527 7.54979 3.60633 7.54979 3.65997C7.50949 4.24993 7.79159 4.79966 7.81846 5.38962C7.81846 5.63097 7.84533 5.85891 7.96623 6.07344C8.00653 6.14048 8.01996 6.22093 8.01996 6.30138C7.99309 6.86452 8.26176 7.38744 8.28863 7.95058C8.30206 8.16511 8.40952 8.25897 8.62446 8.24556C8.73192 8.23215 8.83939 8.24556 8.93342 8.24556C19.8278 8.24556 30.7222 8.24556 41.6166 8.24556C42.0196 8.24556 42.4361 8.27238 42.7048 8.62099C42.9197 8.88915 43.1212 9.19754 42.9062 9.58638C42.8256 9.72046 42.8391 9.88136 42.8391 10.0288C42.8391 10.3104 42.8122 10.5786 42.6644 10.8199C42.5973 10.9406 42.6107 11.0747 42.6107 11.2088C42.5973 11.5306 42.6107 11.8524 42.4226 12.1473C42.3823 12.2144 42.3823 12.3351 42.3823 12.4289C42.3823 12.7641 42.3689 13.0993 42.1943 13.3943C42.1271 13.515 42.154 13.6759 42.154 13.81C42.1405 14.0915 42.1137 14.3597 41.9793 14.6144C41.8584 14.8558 41.9794 15.1508 41.8853 15.4055C41.657 16.0089 41.751 16.6793 41.4823 17.2827C41.4017 17.457 41.4555 17.6849 41.4286 17.8726C41.348 18.3955 41.2405 18.9185 41.1465 19.4414C40.9853 20.2861 40.8375 21.1308 40.6898 21.9755C40.6092 22.3778 40.5689 22.7934 40.4614 23.1957C40.233 24.1342 39.7494 24.9387 38.9837 25.5823C38.527 25.9712 38.0031 26.2125 37.4523 26.427C37.1971 26.5343 36.8881 26.5209 36.606 26.5209C34.3492 26.5209 32.1059 26.5209 29.8491 26.5209C23.9653 26.5209 18.0815 26.5209 12.1977 26.5209C11.741 26.5209 11.741 26.5611 11.7679 27.017C11.7947 27.6472 12.0231 28.2371 12.0768 28.8673C12.1171 29.2964 12.1843 29.7523 12.3052 30.1679C12.4261 30.5836 12.4127 31.0126 12.5335 31.4149C12.6544 31.8171 12.735 32.2194 12.735 32.635C12.735 32.7959 12.8559 32.8496 12.9903 32.8496C13.1783 32.863 13.3664 32.863 13.5679 32.863C21.01 32.863 28.4654 32.863 35.9209 32.863C36.203 32.863 36.4717 32.8898 36.7404 33.0239C36.9687 33.1445 37.2508 33.1713 37.5061 33.2786C38.1106 33.5334 38.5942 33.9222 39.0643 34.3513C39.5882 34.8474 39.9509 35.4641 40.2196 36.1211C40.5554 36.9927 40.6226 37.9178 40.4614 38.8028C40.2196 40.0497 39.5614 41.109 38.5136 41.9001C38.03 42.2755 37.4926 42.5034 36.9553 42.7448C36.9419 42.7582 36.915 42.7582 36.9016 42.7582C36.3239 42.7716 35.7732 43.1068 35.1955 42.9593C34.7119 42.8252 34.2015 42.8118 33.7179 42.6241C33.2343 42.4364 32.791 42.1816 32.388 41.8867C31.7029 41.3906 31.1521 40.747 30.8297 39.9693C30.6819 39.6073 30.467 39.2453 30.5207 38.8028C30.5476 38.5346 30.3461 38.2799 30.373 37.9983C30.4267 37.3949 30.5073 36.7916 30.7222 36.2016C30.8834 35.7591 31.0849 35.3301 31.3536 34.9412C31.4342 34.834 31.367 34.8071 31.273 34.7937C31.0984 34.7669 30.9103 34.7401 30.7357 34.7401C26.7729 34.7401 22.7966 34.7401 18.8338 34.7401C18.6054 34.7401 18.3905 34.7669 18.1218 34.8474ZM24.7713 10.1763H9.25582C9.16179 10.1763 9.06776 10.1763 8.97372 10.1763C8.79909 10.1763 8.77222 10.2568 8.75879 10.4177C8.71849 10.8602 8.93342 11.2356 8.98716 11.6378C9.01402 11.8658 8.94686 12.1205 9.05432 12.3351C9.20209 12.6166 9.22896 12.9116 9.22896 13.22C9.22896 13.3407 9.21552 13.4747 9.26926 13.582C9.43046 13.877 9.44389 14.1988 9.45732 14.5206C9.45732 14.6413 9.43046 14.7753 9.49762 14.8826C9.67226 15.1508 9.68569 15.4323 9.68569 15.7273C9.68569 15.8614 9.67226 16.0089 9.73942 16.1162C9.90062 16.3977 9.91405 16.6927 9.92749 17.0011C9.92749 17.1218 9.92749 17.2558 9.96779 17.3631C10.2096 18.0067 10.2365 18.7039 10.3574 19.3878C10.4648 19.9777 10.6663 20.5543 10.6529 21.171C10.6529 21.2113 10.6798 21.2649 10.7066 21.3051C10.7872 21.4794 10.8141 21.6671 10.8275 21.8549C10.841 22.056 10.8275 22.2705 10.9081 22.4448C11.1634 23.008 11.0559 23.6247 11.2574 24.2013C11.4186 24.6303 11.3514 24.6572 11.835 24.6572C19.7607 24.6572 27.6863 24.6572 35.612 24.6706C36.3374 24.6706 37.009 24.5767 37.6135 24.2013C38.03 23.9465 38.3121 23.5443 38.4464 23.0884C38.5807 22.6057 38.7688 22.1364 38.7285 21.6135C38.7151 21.5196 38.7688 21.399 38.8225 21.3185C38.9031 21.171 38.93 21.0101 38.93 20.8492C38.93 20.1788 39.2121 19.5621 39.239 18.8916C39.239 18.7173 39.3867 18.5699 39.3867 18.3821C39.3733 17.6849 39.5882 17.0145 39.7226 16.3441C39.83 15.8078 39.9241 15.258 40.0181 14.7351C40.139 14.1452 40.2599 13.5284 40.3405 12.925C40.4345 12.1473 40.636 11.3831 40.7704 10.6188C40.851 10.1495 40.8375 10.1495 40.3405 10.1495H24.7713V10.1763ZM35.4911 41.0285C37.1702 40.9883 38.5942 39.7279 38.5942 37.8642C38.5807 36.2016 37.2777 34.7803 35.4373 34.7937C33.6238 34.7937 32.3074 36.2686 32.3074 37.9178C32.3208 39.6207 33.7044 41.0419 35.4911 41.0285ZM17.2486 37.891C17.3427 36.282 15.8784 34.7669 14.0784 34.7803C12.3992 34.7937 11.0022 36.1614 10.9887 37.891C10.9753 39.7145 12.4932 41.0151 14.0918 41.0285C15.7978 41.0419 17.3158 39.6475 17.2486 37.891Z" fill="black"/>
</g>
</g>
</svg>
