<svg width="65" height="63" viewBox="0 0 65 63" fill="none" xmlns="http://www.w3.org/2000/svg">
<path d="M55.9172 56.6636C55.0031 56.2858 54.3967 56.936 53.6847 57.6301C50.3624 60.8722 46.3984 62.603 41.7048 62.5591C38.5231 62.5327 35.3326 62.5503 32.1508 62.5591C31.3686 62.5591 30.6215 62.3746 29.9271 62.0407C28.7933 61.496 28.222 60.468 28.3626 59.2204C28.4242 58.6668 28.4593 58.1133 28.723 57.6037C28.8724 57.305 28.8021 57.138 28.4593 57.0414C27.1585 56.7075 25.9016 56.2155 24.6711 55.662C24.3107 55.5038 24.1525 55.539 23.9592 55.9343C23.2296 57.4543 22.4826 58.9656 21.674 60.4416C20.9093 61.8386 19.7403 62.6118 18.0791 62.5679C16.8574 62.5327 15.6445 62.5415 14.4227 62.5679C13.8251 62.5767 13.2713 62.4449 12.7352 62.234C11.531 61.7683 10.9158 60.4504 11.408 59.2379C11.9266 57.9288 12.7088 56.8393 14.1766 56.4351C14.6161 56.3121 14.8885 56.0661 14.9852 55.5653C15.2753 53.9574 15.1611 52.4462 14.2118 51.0317C13.3505 49.7313 12.4012 48.4925 11.6629 47.113C10.8718 45.6545 10.3621 44.117 10.072 42.4739C9.79076 40.8661 9.68527 39.267 9.83469 37.6503C9.905 36.842 9.76437 36.7717 8.90302 36.6575C6.67931 36.3676 4.54354 35.8316 2.78567 34.3204C1.854 33.5121 1.20357 32.5104 1.01021 31.2892C0.263111 26.4743 1.76609 22.3361 4.91267 18.7337C6.79359 16.5811 9.14915 15.0963 11.8475 14.1737C12.7528 13.8662 13.6932 13.6553 14.6249 13.462C15.0028 13.383 15.1171 13.2072 15.1171 12.8558C15.1083 11.9596 15.0644 11.0546 15.1171 10.1672C15.2841 7.37324 15.9609 4.74618 17.6045 2.42663C18.2988 1.45137 19.2129 0.774832 20.3644 0.467317C21.2521 0.230091 22.0167 0.607895 22.6584 1.15264C23.3176 1.70617 23.8185 2.41784 24.0207 3.27889C24.1174 3.70062 24.2756 3.74455 24.6184 3.48976C25.3742 2.92744 26.2093 2.50571 27.1146 2.23333C29.391 1.53923 31.3422 2.8923 31.7817 5.37878C32.1684 7.53139 31.5971 9.52585 30.7533 11.4676C29.4964 14.367 27.5716 16.8096 25.383 19.05C24.9084 19.5333 24.8205 19.8935 25.137 20.5261C25.6995 21.6507 26.0159 22.8808 26.262 24.1109C26.3674 24.638 26.6135 24.6468 26.9739 24.4447C28.8724 23.3992 30.9467 22.8984 33.0562 22.6084C34.357 22.4239 35.6842 22.3361 37.0114 22.4591C38.154 22.5645 39.3053 22.626 40.4304 22.8632C43.2518 23.4431 45.9062 24.4799 48.3584 25.9999C52.0499 28.2843 54.9768 31.2979 57.0071 35.1551C57.7894 36.6311 58.343 38.2039 58.7122 39.8293C58.8089 40.2598 58.9847 40.6816 59.0023 41.1384C59.0111 41.5514 59.3538 41.7008 59.7142 41.7359C63.0893 42.0873 65.0933 46.0411 64.3111 49.0196C63.6167 51.6906 62.2719 53.9311 59.9339 55.495C58.8001 56.2594 57.4026 56.6636 55.9172 56.6636ZM37.6793 59.5982C39.3932 59.5982 41.0984 59.5894 42.8123 59.6069C43.9373 59.6157 45.0272 59.4137 46.0732 59.0358C50.0987 57.551 53.1046 54.9239 54.9328 50.9965C55.5744 49.6083 56.0139 48.1586 56.2424 46.6649C56.5412 44.6968 56.4973 42.7287 56.0667 40.7606C55.7239 39.2231 55.2141 37.7646 54.4758 36.3851C52.4015 32.528 49.3691 29.6374 45.4843 27.6253C42.6805 26.1756 39.6921 25.3673 36.5367 25.2706C33.0561 25.1652 29.7865 26.0175 26.6926 27.6165C24.9436 28.5215 24.135 27.7571 24.0207 26.1493C23.8713 24.0669 23.1681 22.2043 22.1662 20.4207C21.5685 19.3488 21.6212 18.9534 22.509 18.066C24.9436 15.6586 27.0003 12.97 28.3275 9.79822C28.9076 8.42758 29.4086 7.00422 28.8636 5.46664C28.7406 5.11519 28.5472 5.00097 28.2132 4.99219C27.598 4.9834 27.0882 5.26456 26.6224 5.58965C23.7131 7.63682 21.9376 10.5099 20.8038 13.8047C20.127 15.7816 20.1622 15.8255 18.0879 15.764C15.0468 15.6762 12.2606 16.4669 9.74681 18.1539C7.62858 19.5772 6.00257 21.4223 4.93027 23.7594C4.20076 25.3497 3.8228 27.0103 3.65581 28.7412C3.45365 30.8586 4.08646 32.1238 5.66855 32.8092C7.94498 33.802 10.3269 34.294 12.8319 33.7141C15.9345 32.9937 18.5625 31.667 19.8282 28.4776C20.1006 27.7923 20.7862 27.5287 21.4718 27.7132C22.1837 27.8977 22.4738 28.3282 22.465 29.1365C22.465 29.5319 22.3683 29.8922 22.2013 30.2524C21.3839 32.036 20.0831 33.3803 18.4746 34.461C16.875 35.5329 15.0995 36.183 13.2362 36.6048C12.744 36.719 12.6121 37.0002 12.5946 37.4043C12.5682 38.0633 12.5682 38.731 12.5682 39.39C12.5682 41.8501 13.1571 44.1521 14.4667 46.2608C15.0292 47.1657 15.6796 48.018 16.2861 48.8966C16.9804 49.907 17.5342 50.9789 17.8242 52.1826C18.2549 54.0014 17.9209 55.785 17.6045 57.5598C17.4551 58.3769 17.0595 58.7108 16.2246 58.8162C15.8202 58.8689 15.4159 58.9041 15.0468 59.0974C14.9237 59.1589 14.7392 59.2379 14.7567 59.4049C14.7831 59.6421 15.0116 59.5894 15.1698 59.5894C16.0663 59.5982 16.9628 59.5542 17.8594 59.6069C18.6065 59.6509 19.0547 59.3434 19.3799 58.6932C20.1797 57.0677 21.0587 55.4775 21.8234 53.8344C22.4474 52.4902 22.799 51.0844 22.3244 49.5644C22.0255 48.5891 21.5333 47.7281 21.1378 46.8055C20.8213 46.085 21.0587 45.3646 21.7179 44.978C22.3507 44.609 23.133 44.7847 23.5812 45.4173C24.0646 46.1026 24.3811 46.867 24.6799 47.649C25.2336 49.0987 25.3479 50.5923 25.2512 52.1211C25.2249 52.5604 25.3743 52.8152 25.7962 53.0085C27.1761 53.6499 28.6175 54.1156 30.0766 54.511C30.6391 54.6691 31.2367 55.0206 31.8168 54.7833C32.8979 54.3528 34.0493 54.2298 35.1568 53.9574C35.5611 53.8608 35.5347 53.7466 35.3414 53.4566C34.6822 52.5077 34.1372 51.4798 33.7768 50.3903C32.9946 48.0444 32.9419 45.6721 33.689 43.291C34.5064 40.6816 36.0181 38.5641 38.1715 36.9035C38.8043 36.4203 39.6833 36.5169 40.1404 37.0617C40.6414 37.6503 40.5622 38.4938 39.9558 39.0737C39.5075 39.5042 39.0417 39.9084 38.6198 40.3565C35.9215 43.1856 35.3238 47.0076 36.8268 50.2936C37.6178 52.0333 38.8395 53.4478 40.4392 54.5285C40.7908 54.7658 41.1599 54.9854 41.4324 55.3281C42.0828 56.154 41.573 57.4719 40.5534 57.6301C40.0525 57.7091 39.6306 57.4719 39.2526 57.1908C38.7429 56.813 38.2067 56.6021 37.5387 56.6284C36.3609 56.6724 35.1919 56.8481 34.0581 57.0941C33.1001 57.305 32.0893 57.5861 31.474 58.4999C31.307 58.7547 31.1225 59.0183 31.2543 59.3258C31.3861 59.6421 31.7202 59.5718 31.9926 59.5718C33.8823 59.5982 35.7808 59.5982 37.6793 59.5982ZM61.5512 47.7193C61.5863 46.375 61.0941 45.3382 59.9603 44.6793C59.3714 44.3366 59.1517 44.4772 59.1517 45.1625C59.1517 47.9741 58.3255 50.5748 57.1213 53.0788C57.0422 53.2458 56.8137 53.4215 56.9543 53.5884C57.1125 53.7905 57.3499 53.6148 57.5433 53.5533C59.767 52.745 61.6918 49.4941 61.5512 47.7193ZM18.1055 12.8646C18.2022 12.7504 18.2636 12.7152 18.2812 12.6625C18.9844 10.4923 20.0479 8.50665 21.4015 6.67913C21.5597 6.46826 21.7003 6.23104 21.63 5.96745C21.4454 5.29092 21.4102 4.57924 21.0938 3.93785C20.795 3.34039 20.6632 3.30525 20.1886 3.81484C19.5733 4.48259 19.1865 5.29092 18.835 6.11682C18.2109 7.59289 18.0791 9.16561 17.877 10.7295C17.7891 11.4061 17.7275 12.1441 18.1055 12.8646Z" fill="black"/>
</svg>
