<svg width="65" height="65" viewBox="0 0 65 65" fill="none" xmlns="http://www.w3.org/2000/svg">
<rect width="65" height="65" fill="#F5F5F5"/>
<g id="Component 1">
<rect id="Rectangle 19" x="-1224" y="-28" width="1440" height="6333" fill="white"/>
<rect x="-1110.5" y="1531.5" width="2049" height="286" stroke="black"/>
</g>
<g id="Group">
<g id="Clip path group">
<mask id="mask0_0_1" style="mask-type:luminance" maskUnits="userSpaceOnUse" x="0" y="0" width="65" height="65">
<g id="SVGID_2_">
<path id="Vector" d="M64.8068 0H0.126099V64.9649H64.8068V0Z" fill="white"/>
</g>
</mask>
<g mask="url(#mask0_0_1)">
<g id="Group_2">
<g id="Clip path group_2">
<mask id="mask1_0_1" style="mask-type:luminance" maskUnits="userSpaceOnUse" x="0" y="0" width="65" height="65">
<g id="SVGID_4_">
<path id="Vector_2" d="M64.8068 0H0.126099V64.9649H64.8068V0Z" fill="white"/>
</g>
</mask>
<g mask="url(#mask1_0_1)">
<path id="Vector_3" d="M18.0124 21.1834C18.0124 19.2856 17.9509 17.379 18.0388 15.4812C18.0828 14.4884 17.7135 13.9524 16.8522 13.5746C16.0787 13.2407 15.3756 12.7399 14.611 12.3709C14.0133 12.081 13.8023 11.4044 13.943 10.561C14.0045 10.1832 14.6109 9.67356 15.0943 9.61206C15.5689 9.54177 15.9381 9.85807 16.316 10.0426C17.2916 10.517 18.2145 11.0969 19.1638 11.6329C19.3132 11.7207 19.4451 11.7383 19.5945 11.6504C20.7196 10.9388 21.8973 10.3237 23.0575 9.65599C24.2792 8.95309 25.4921 8.23263 26.7402 7.57367C27.7158 7.05528 28.6651 6.46661 29.6231 5.91308C30.1417 5.60557 30.6515 5.27169 31.1876 4.99932C31.4601 4.85874 31.5568 4.69181 31.5568 4.41065C31.548 3.40903 31.548 2.40741 31.5568 1.40578C31.5656 0.746822 32.0841 0.114219 32.6818 0.0263573C33.4552 -0.0790766 33.9826 0.307514 34.2287 1.05434C34.5715 2.07353 34.387 3.1103 34.387 4.12949C34.387 4.77088 34.6858 5.06083 35.1868 5.32441C35.9779 5.74615 36.7337 6.21181 37.5071 6.65112C38.2806 7.09922 39.0541 7.53852 39.8275 7.98662C40.768 8.53136 41.7173 9.08489 42.6578 9.63842C43.774 10.2974 44.8726 10.9739 46.0065 11.6065C46.4547 11.8525 46.7975 11.4132 47.1315 11.2287C48.1687 10.6664 49.2321 10.1568 50.2869 9.63842C50.6912 9.43633 51.579 9.87564 51.7811 10.2974C51.9745 10.7191 52.2557 11.0969 51.869 11.5977C51.5877 11.9667 51.2977 12.2479 50.8758 12.4763C49.8562 13.0123 48.8279 13.5307 47.8083 14.0491C47.5271 14.1896 47.5622 14.4708 47.5622 14.7256C47.5622 16.9836 47.5622 19.2329 47.5622 21.4909C47.5622 23.3448 47.6237 25.1899 47.5358 27.035C47.5006 27.8345 47.861 28.1772 48.4499 28.4935C49.6453 29.1525 50.823 29.829 52.0095 30.5055C53.2928 31.2348 54.576 31.9728 55.8593 32.7109C56.8173 33.2732 57.7754 33.8355 58.7246 34.4154C59.1377 34.6702 59.5332 34.635 59.9287 34.3715C60.4297 34.0376 60.9747 33.774 61.5109 33.4841C61.8888 33.282 62.2932 33.1238 62.6623 32.8954C63.1897 32.5703 64.0246 32.746 64.341 33.2995C64.7893 34.0815 64.7102 34.8108 63.9543 35.3379C63.3566 35.7597 62.6798 36.0672 62.047 36.4274C61.6075 36.6734 61.1681 36.9194 60.7374 37.1918C60.5177 37.3324 60.6055 37.596 60.6055 37.8068C60.5967 41.3564 60.6055 44.8973 60.6055 48.4381C60.6055 49.0531 60.6407 49.6594 60.5967 50.2656C60.5528 50.7576 60.7901 51.0212 61.1681 51.2321C62.1349 51.768 63.1018 52.3128 64.0774 52.8487C64.9563 53.332 65.1145 54.5445 64.385 55.2298C64.1037 55.4934 63.0578 55.5285 62.6974 55.3177C61.8712 54.8432 61.0275 54.3863 60.2101 53.9119C59.8497 53.701 59.5332 53.4111 59.0586 53.5165C58.6982 53.5956 58.4522 53.8679 58.1534 54.0349C57.5118 54.3951 56.8261 54.6851 56.2285 55.098C55.4902 55.5988 54.6727 55.9503 53.9257 56.4335C53.2225 56.8904 52.4578 57.2506 51.7283 57.6636C50.7 58.2434 49.6628 58.8321 48.6345 59.412C48.3005 59.6053 47.9752 59.8337 47.6237 59.9655C47.2633 60.0973 47.1842 60.3345 47.1842 60.6684C47.1842 61.5822 47.193 62.4959 47.1754 63.4185C47.1578 64.2005 46.3844 64.9297 45.6198 64.9034C44.9957 64.8858 44.2398 64.1565 44.231 63.5239C44.2134 62.7068 44.1431 61.8809 44.2486 61.0902C44.3541 60.2643 43.8971 59.9216 43.3082 59.6404C42.7017 59.3505 42.1392 58.9815 41.5503 58.6476C40.5307 58.0677 39.5024 57.4966 38.4828 56.9167C37.7269 56.4862 36.971 56.0293 36.2239 55.59C35.2659 55.0277 34.2815 54.5181 33.3586 53.9031C32.7345 53.4813 32.2248 53.578 31.6359 53.9294C30.4318 54.6587 29.2012 55.3616 27.9795 56.0645C26.5468 56.8816 25.1054 57.6723 23.6639 58.4807C22.7059 59.0166 21.7479 59.5438 20.7987 60.0797C20.5174 60.2379 20.3943 60.5015 20.3943 60.8441C20.4119 61.714 20.4031 62.575 20.3943 63.4361C20.3855 64.0072 19.8318 64.7276 19.2956 64.877C18.7155 65.0351 18.197 64.7803 17.7839 64.218C17.5202 63.8666 17.4323 63.5064 17.4411 63.0846C17.4587 62.4608 17.3708 61.8194 17.4587 61.2044C17.5817 60.3433 17.0544 59.9655 16.4479 59.6492C15.6041 59.2011 14.8131 58.6564 13.9605 58.2347C13.1519 57.8393 12.396 57.3473 11.605 56.9079C10.893 56.5126 10.1812 56.0996 9.47801 55.6779C8.69576 55.2034 7.90464 54.729 7.09602 54.2985C6.85871 54.1755 6.6038 54.0261 6.41923 53.8767C5.89187 53.4462 5.5052 53.701 5.05694 53.9646C4.36259 54.3775 3.6594 54.7553 2.92988 55.098C2.68378 55.2122 2.43773 55.3704 2.2092 55.5285C1.56758 55.9503 1.05776 55.7042 0.521613 55.3528C0.389773 55.2649 0.301935 55.1419 0.249199 54.9926C0.00309744 54.2457 0.231603 53.4726 0.890804 53.0684C1.884 52.4709 2.88593 51.8823 3.91429 51.3639C4.3186 51.1618 4.39774 50.9158 4.39774 50.5292C4.38895 47.6825 4.39774 44.827 4.39774 41.9803C4.39774 40.5569 4.38895 39.1335 4.39774 37.7102C4.39774 37.3939 4.32746 37.2094 3.99347 37.06C3.44853 36.814 2.97389 36.3923 2.43774 36.1287C1.86643 35.8475 1.32147 35.5312 0.76774 35.2325C0.0470141 34.8459 -0.014507 33.238 0.662272 32.8514C1.14569 32.5703 1.68187 32.5176 2.12133 32.7372C3.14969 33.2556 4.13403 33.8794 5.13602 34.4593C5.54912 34.6965 5.96227 34.7932 6.40174 34.512C7.70256 33.6773 9.11762 33.036 10.4448 32.2628C11.5523 31.6126 12.6773 31.0064 13.8023 30.3825C15.0767 29.6796 16.3249 28.924 17.5993 28.2124C17.9861 27.9927 18.0564 27.6764 18.0564 27.2722C18.0037 25.2866 18.0124 23.2306 18.0124 21.1834ZM44.5826 21.0516C44.5826 18.899 44.5826 16.7464 44.5826 14.5938C44.5826 14.3829 44.6353 14.1457 44.3892 14.0051C43.9849 13.7591 43.5894 13.5043 43.1763 13.2671C42.1567 12.6784 41.1372 12.0985 40.1176 11.5011C39.186 10.9563 38.2894 10.3589 37.3402 9.84928C36.0569 9.15518 34.8527 8.34685 33.5519 7.67031C33.1652 7.46823 32.8312 7.38037 32.4533 7.5561C32.1017 7.72303 31.7678 7.91633 31.4338 8.10962C30.2736 8.78616 29.1221 9.48026 27.9619 10.148C26.7226 10.8597 25.4745 11.545 24.2352 12.2479C23.2245 12.819 22.2313 13.4165 21.2206 13.9788C20.9129 14.1457 20.7547 14.3478 20.7635 14.6905C20.7723 15.0507 20.7635 15.4021 20.7635 15.7624C20.7635 19.6634 20.7635 23.5645 20.7547 27.4655C20.7547 27.8521 20.8514 28.0893 21.2294 28.309C21.9325 28.7044 22.6268 29.1173 23.3387 29.4951C24.1385 29.9257 24.9032 30.4089 25.6855 30.8746C26.4853 31.349 27.2764 31.841 28.0938 32.2979C28.7793 32.6757 29.4298 33.115 30.1242 33.4753C30.7394 33.7916 31.3195 34.143 31.8996 34.512C32.2688 34.7493 32.6906 34.7317 33.0598 34.5296C34.0881 33.9673 35.0813 33.3259 36.1272 32.7987C37.4193 32.1486 38.641 31.3754 39.9155 30.6988C41.2251 30.0047 42.4995 29.2228 43.8091 28.5023C44.3277 28.2211 44.6353 27.9048 44.609 27.2195C44.5475 25.1548 44.5826 23.0988 44.5826 21.0516ZM57.916 44.1065C57.916 42.156 57.8897 40.2055 57.9336 38.2549C57.9512 37.5081 57.8106 36.9722 57.0195 36.7349C56.7822 36.6646 56.5449 36.4977 56.3163 36.3571C54.7958 35.4258 53.2401 34.556 51.6931 33.6773C50.0583 32.746 48.4587 31.762 46.8151 30.8394C46.5778 30.7076 46.3141 30.4001 46.0153 30.5231C45.5318 30.7164 45.0836 30.9888 44.6354 31.2524C42.9918 32.2013 41.3568 33.1678 39.7045 34.0991C38.0257 35.048 36.3294 35.9705 34.6419 36.9107C34.2024 37.1567 33.9738 37.4818 33.9914 38.0441C34.0353 40.0297 34.009 42.0154 34.009 44.0011C34.009 46.1713 34.0178 48.3414 34.009 50.5116C34.009 50.9597 34.1233 51.2848 34.5979 51.4605C34.9231 51.5835 35.2308 51.7856 35.5208 51.9877C36.3998 52.5852 37.3402 53.0948 38.2631 53.5956C39.5463 54.2809 40.768 55.0804 42.0688 55.7482C43.229 56.3456 44.3277 57.0573 45.4439 57.7251C45.6724 57.8568 45.8571 57.8393 46.0416 57.6723C46.4811 57.2682 47.0524 57.0573 47.5622 56.8025C48.6081 56.2841 49.5925 55.6515 50.6209 55.0892C51.9129 54.3951 53.1961 53.6571 54.4706 52.9102C55.3935 52.3655 56.3515 51.8559 57.2919 51.3375C57.7226 51.1003 57.9599 50.8279 57.9511 50.2656C57.8896 48.2097 57.916 46.1625 57.916 44.1065ZM7.31576 44.2559C7.31576 46.4261 7.31576 48.5962 7.31576 50.7664C7.31576 51.0915 7.38615 51.3024 7.72894 51.4781C8.52877 51.8823 9.28457 52.3743 10.0668 52.8224C10.8139 53.2529 11.5787 53.6746 12.3257 54.0964C13.0377 54.5005 13.7144 54.9574 14.4615 55.3264C14.9801 55.59 15.4284 56.003 15.9469 56.2666C16.8171 56.7059 17.6521 57.1891 18.4695 57.6987C18.7771 57.892 19.0584 57.8744 19.366 57.6899C20.1307 57.233 20.8866 56.7586 21.6776 56.3544C22.7411 55.8097 23.7606 55.1859 24.7978 54.5972C25.6152 54.1315 26.4502 53.701 27.2588 53.2266C27.7774 52.919 28.3311 52.6642 28.8584 52.3743C29.421 52.0756 29.9483 51.7065 30.5108 51.4078C30.9064 51.1969 31.1524 50.9509 31.1436 50.4677C31.1261 49.4134 31.1348 48.3678 31.1348 47.3135C31.1348 44.1417 31.1348 40.9699 31.1348 37.7981C31.1348 37.4993 31.1173 37.2621 30.7746 37.1039C30.3087 36.8843 29.8429 36.6207 29.4298 36.3308C28.709 35.8387 27.9355 35.4258 27.1884 35.0041C26.1689 34.433 25.1669 33.8179 24.121 33.2732C22.6883 32.5264 21.3348 31.639 19.946 30.8218C19.5329 30.5846 19.1111 30.5934 18.7068 30.8921C18.1795 31.2787 17.5729 31.5335 17.0104 31.841C15.9821 32.4034 14.9625 32.9745 13.943 33.5456C13.1695 33.9761 12.396 34.433 11.6226 34.8635C10.3745 35.5576 9.17031 36.322 7.86949 36.9282C7.49155 37.1039 7.28937 37.4027 7.29816 37.8947C7.33332 40.021 7.31576 42.1384 7.31576 44.2559Z" fill="black"/>
</g>
</g>
<g id="Clip path group_3">
<mask id="mask2_0_1" style="mask-type:luminance" maskUnits="userSpaceOnUse" x="0" y="0" width="65" height="65">
<g id="SVGID_4__2">
<path id="Vector_4" d="M64.8068 0H0.126099V64.9649H64.8068V0Z" fill="white"/>
</g>
</mask>
<g mask="url(#mask2_0_1)">
<path id="Vector_5" d="M35.5382 14.3478C34.6856 14.4444 34.1495 13.8382 33.5431 13.4165C33.0597 13.0826 32.6817 13.0562 32.2071 13.4077C31.6446 13.8206 31.126 14.3302 30.3525 14.339C29.6494 14.3478 29.1395 14.0051 28.9374 13.4077C28.7528 12.8454 29.0165 12.1337 29.5703 11.7735C30.4404 11.2024 31.3105 10.64 32.1895 10.0777C32.7168 9.73507 33.253 9.78778 33.8155 10.1832C34.5802 10.7279 35.3624 11.2551 36.1447 11.7735C36.7863 12.204 37.0588 12.9332 36.8127 13.6713C36.6808 14.0754 36.1622 14.3478 35.5382 14.3478Z" fill="black"/>
</g>
</g>
<g id="Clip path group_4">
<mask id="mask3_0_1" style="mask-type:luminance" maskUnits="userSpaceOnUse" x="0" y="0" width="65" height="65">
<g id="SVGID_4__3">
<path id="Vector_6" d="M64.8068 0H0.126099V64.9649H64.8068V0Z" fill="white"/>
</g>
</mask>
<g mask="url(#mask3_0_1)">
<path id="Vector_7" d="M50.2868 36.2605C50.3395 36.7174 50.0935 37.1918 49.5485 37.4378C49.0739 37.6487 48.5641 37.6048 48.1071 37.2709C47.5973 36.8843 47.0523 36.5504 46.5337 36.1638C46.358 36.032 46.2261 36.0672 46.0855 36.1902C45.5142 36.6734 44.8462 37.0073 44.2221 37.4027C43.6772 37.7541 43.1323 37.4554 42.6577 36.8755C41.8579 35.8915 42.4643 35.2413 43.3432 34.5999C43.9673 34.143 44.6617 33.7828 45.3033 33.3435C45.7779 33.0096 46.7799 32.8954 47.2545 33.2292C48.151 33.8355 49.0212 34.4681 49.9001 35.1007C50.2517 35.3379 50.278 35.7245 50.2868 36.2605Z" fill="black"/>
</g>
</g>
<g id="Clip path group_5">
<mask id="mask4_0_1" style="mask-type:luminance" maskUnits="userSpaceOnUse" x="0" y="0" width="65" height="65">
<g id="SVGID_4__4">
<path id="Vector_8" d="M64.8068 0H0.126099V64.9649H64.8068V0Z" fill="white"/>
</g>
</mask>
<g mask="url(#mask4_0_1)">
<path id="Vector_9" d="M23.0926 36.2605C23.1453 36.7525 22.9255 37.2445 22.363 37.473C21.862 37.6838 21.3611 37.6926 20.8865 37.2972C20.3855 36.8843 19.735 36.6559 19.2692 36.1814C19.1461 36.0496 19.0143 36.1375 18.9089 36.2341C18.3551 36.7086 17.6783 36.9985 17.0806 37.4115C16.5708 37.7629 15.9996 37.6048 15.4898 37.0073C14.8745 36.2868 14.9097 35.7333 15.6393 35.0831C16.3336 34.4681 17.151 34.0288 17.9245 33.528C18.2321 33.3259 18.487 33.115 18.9089 33.0887C19.5505 33.0535 20.0954 33.2205 20.5437 33.6158C21.1677 34.1606 21.9412 34.4857 22.5565 35.0568C22.9344 35.4082 23.0926 35.6367 23.0926 36.2605Z" fill="black"/>
</g>
</g>
</g>
</g>
</g>
</g>
</svg>
