<svg width="53" height="53" viewBox="0 0 53 53" fill="none" xmlns="http://www.w3.org/2000/svg">
<rect width="53" height="53" fill="#F5F5F5"/>
<g id="Component 1">
<rect id="Rectangle 19" x="-150" y="-34" width="1440" height="6333" fill="white"/>
<rect x="-36.5" y="1525.5" width="2049" height="286" stroke="black"/>
</g>
<path id="Vector" d="M26.7002 0.782903C40.9125 0.800475 52.4881 12.3982 52.4178 26.5703C52.3475 40.6193 40.5785 52.2171 26.4189 52.1819C12.1714 52.138 0.956182 40.4963 1.00013 25.8059C1.03529 12.0204 12.5933 0.774117 26.7002 0.782903ZM12.8306 43.0795C20.9695 51.0222 35.1643 49.9766 43.1099 40.8917C50.4929 32.4482 50.4665 18.6188 43.1362 12.7057C33.0812 22.7834 23.0262 32.8612 12.8306 43.0795ZM39.9545 9.31426C33.3185 2.29412 19.2644 2.90037 11.2309 10.7376C3.1711 18.6012 2.46795 32.5449 9.56095 39.7232C19.6951 29.5927 29.8204 19.4535 39.9545 9.31426Z" fill="black" stroke="white" stroke-width="0.4331" stroke-miterlimit="10"/>
</svg>
