<svg width="52" height="61" viewBox="0 0 52 61" fill="none" xmlns="http://www.w3.org/2000/svg">
<path d="M51.3892 24.3585C51.1694 27.5918 51.2573 31.7916 50.4751 35.8156C49.851 39.0401 48.9193 42.7918 46.7835 45.0235C42.09 49.9438 36.6934 54.2402 31.2967 58.4136C28.1853 60.821 24.3443 60.7859 21.0835 58.4839C16.5043 55.2506 11.9074 51.9558 7.82039 48.1426C3.34662 43.9692 1.43054 38.3812 1.28112 32.2309C1.16686 27.7236 0.964704 23.2075 0.788917 18.7002C0.577973 13.4373 2.61709 10.16 7.74128 9.11448C14.1135 7.81413 20.0464 6.00418 24.6608 1.03121C25.153 0.504045 27.4294 0.741272 28.0886 1.40023C32.2372 5.58244 37.124 7.75263 42.9426 8.63124C49.3237 9.59772 51.4946 12.7432 51.3892 19.324C51.3628 20.7034 51.3892 22.0828 51.3892 24.3585ZM26.1022 5.4858C21.356 10.1337 15.8802 12.1809 9.73646 12.875C6.37893 13.2528 4.80565 15.4142 5.0869 18.9374C5.35058 22.3113 5.67578 25.7115 5.46484 29.0678C4.87595 38.4602 9.27942 45.2432 16.557 50.304C27.0163 57.5877 25.3288 57.658 35.9111 50.1722C42.3625 45.6122 46.9242 39.6815 46.7044 31.0887C46.599 26.968 46.8187 22.8209 47.1263 18.7002C47.3988 15.0627 45.6146 13.1913 42.3186 12.8222C36.2803 12.1545 30.9188 10.0985 26.1022 5.4858Z" fill="black" stroke="white" stroke-width="0.4331" stroke-miterlimit="10"/>
<path d="M23.2369 33.3028C26.4626 29.6829 29.2752 26.3178 32.3602 23.2251C33.1601 22.4255 34.8037 22.4694 36.0606 22.1268C35.9199 23.4096 36.2539 25.0701 35.5684 25.9136C32.3515 29.9025 28.8357 33.6542 25.4606 37.5201C24.1334 39.0401 22.859 39.2598 21.3648 37.7574C19.686 36.0792 17.8051 34.5768 16.2845 32.7668C15.7748 32.1606 15.6869 30.4561 16.1527 29.964C16.6625 29.4281 18.2709 29.3314 18.9829 29.7532C20.4683 30.6142 21.6724 31.9497 23.2369 33.3028Z" fill="black"/>
</svg>
