<svg width="25" height="25" viewBox="0 0 25 25" fill="none" xmlns="http://www.w3.org/2000/svg">
<mask id="mask0_1233_102" style="mask-type:luminance" maskUnits="userSpaceOnUse" x="0" y="0" width="25" height="25">
<path d="M25 0H0V24.9436H25V0Z" fill="white"/>
</mask>
<g mask="url(#mask0_1233_102)">
<mask id="mask1_1233_102" style="mask-type:luminance" maskUnits="userSpaceOnUse" x="0" y="0" width="25" height="25">
<path d="M25 0H0V24.9436H25V0Z" fill="white"/>
</mask>
<g mask="url(#mask1_1233_102)">
<path d="M0 10.8377C0.0285714 10.2179 0.0666667 9.59806 0.171429 8.98761C0.361905 7.83247 0.742857 6.74306 1.29524 5.71C1.90476 4.59242 2.68571 3.60632 3.64762 2.7517C4.28571 2.19761 4.9619 1.69986 5.70476 1.30542C6.40952 0.929763 7.14286 0.619846 7.92381 0.394451C9.01905 0.0751424 10.1333 -0.0563377 11.2762 -0.0375548C12.0286 -0.0187719 12.781 0.065751 13.5143 0.244188C14.9048 0.572888 16.2 1.14577 17.3619 1.97221C18.2667 2.61083 19.0476 3.37154 19.7333 4.23555C20.2952 4.9493 20.7524 5.72879 21.1048 6.55523C21.4667 7.39107 21.7143 8.26447 21.8476 9.17544C21.9714 9.97371 21.981 10.7814 21.9333 11.5796C21.8857 12.5751 21.6476 13.5425 21.3048 14.4816C20.9429 15.4583 20.4381 16.3505 19.8286 17.1863C19.6286 17.4681 19.4095 17.7404 19.1619 17.9846C19.0667 18.0785 19.0476 18.1349 19.1619 18.2382C20.2 19.2055 21.2286 20.1822 22.2571 21.1495C22.9619 21.8163 23.6762 22.4831 24.3905 23.1499C24.581 23.3283 24.8 23.4692 24.9143 23.7134C25.0952 24.0984 25 24.4929 24.6381 24.7934C24.3619 25.0188 23.8952 25.0376 23.5905 24.8122C23.2667 24.568 22.9905 24.2675 22.6952 23.9951C21.8762 23.2344 21.0571 22.4643 20.2381 21.7036C19.4381 20.9617 18.6476 20.2104 17.8571 19.4591C17.7429 19.3464 17.6571 19.3558 17.5333 19.4497C16.8381 19.9756 16.0952 20.3982 15.2952 20.7269C14.4762 21.065 13.6286 21.328 12.7429 21.45C12.1048 21.5346 11.4667 21.6285 10.819 21.6003C10.0762 21.5721 9.33333 21.497 8.6 21.3373C7.90476 21.1871 7.23809 20.9617 6.59048 20.6893C5.70476 20.3137 4.89524 19.8253 4.14286 19.2337C3.06667 18.379 2.19048 17.3742 1.49524 16.1908C0.895238 15.1766 0.485714 14.0872 0.238095 12.9414C0.0857143 12.237 0.0380952 11.5421 0 10.8377ZM11 1.75621C10.619 1.71864 10.2381 1.74682 9.85714 1.80317C9.06667 1.91586 8.28571 2.0943 7.53333 2.40422C6.8 2.70474 6.09524 3.0804 5.45714 3.56876C4.62857 4.18859 3.92381 4.93051 3.34286 5.78513C2.91429 6.42375 2.57143 7.09993 2.32381 7.82307C2.09524 8.49926 1.93333 9.18483 1.86667 9.88919C1.8 10.6123 1.80952 11.3261 1.90476 12.0398C2 12.7254 2.18095 13.3828 2.42857 14.0214C2.67619 14.66 3 15.2517 3.38095 15.8152C3.9619 16.6698 4.66667 17.3929 5.50476 18.0034C6.09524 18.4354 6.72381 18.8017 7.39048 19.0834C8.01905 19.3464 8.66667 19.5342 9.33333 19.6563C9.92381 19.769 10.5143 19.7972 11.1048 19.7972C11.619 19.7972 12.1429 19.7502 12.6571 19.6563C13.2762 19.5436 13.8762 19.3651 14.4571 19.1398C15.4476 18.7453 16.3429 18.1818 17.1429 17.4681C17.7333 16.9422 18.2571 16.3505 18.6857 15.6931C19.1429 14.9887 19.5143 14.2468 19.7524 13.4392C19.9048 12.9508 20.0286 12.4531 20.0857 11.9365C20.1524 11.3355 20.181 10.7438 20.1333 10.1334C20.1048 9.72014 20.0571 9.30692 19.9714 8.91248C19.781 8.06725 19.4857 7.25959 19.0667 6.48949C18.3524 5.18408 17.3619 4.13224 16.1333 3.28701C15.5905 2.91136 14.9905 2.62961 14.381 2.37604C13.6381 2.07552 12.8667 1.90647 12.0762 1.79377C11.7238 1.73743 11.3714 1.71864 11 1.75621Z" fill="black"/>
</g>
</g>
</svg>
