<svg width="73" height="63" viewBox="0 0 73 63" fill="none" xmlns="http://www.w3.org/2000/svg">
<path d="M72.7547 44.811C72.7547 47.9564 72.7547 51.1019 72.7547 54.2473C72.7547 55.2753 72.5174 55.6004 71.5506 55.9958C68.4655 57.2434 65.3804 58.4998 62.2866 59.7387C59.7113 60.7755 57.1185 61.7859 54.5344 62.8138C54.2092 62.9456 53.9192 62.9281 53.6028 62.7963C50.9923 61.7419 48.3819 60.6876 45.7626 59.6333C43.284 58.6404 40.7791 57.7179 38.3444 56.6372C37.2633 56.1539 36.3669 56.1803 35.3033 56.6372C31.8667 58.0869 28.4037 59.4487 24.9407 60.837C23.2707 61.5047 21.6008 62.1549 19.9308 62.8226C19.6232 62.9456 19.3507 62.9193 19.0519 62.7963C16.4414 61.7419 13.8222 60.6876 11.2117 59.642C8.69798 58.6404 6.18427 57.6388 3.67052 56.6284C3.03769 56.3736 2.39604 56.1539 1.78079 55.864C1.1128 55.5565 0.849121 54.9942 0.849121 54.2561C0.85791 49.0108 0.857919 43.7567 0.857919 38.5113C0.857919 37.4131 0.857919 36.3148 0.857919 35.2165C0.857919 34.3643 1.18312 33.925 1.95659 33.6174C5.903 32.0271 9.84939 30.4281 13.7958 28.8378C15.0439 28.337 16.2744 27.801 17.5401 27.3529C18.1202 27.142 18.2432 26.8169 18.2432 26.2458C18.2256 20.447 18.2344 14.6481 18.2344 8.85804C18.2344 7.60162 18.4366 7.34682 19.5968 6.88994C22.1809 5.86196 24.7561 4.80762 27.3314 3.77086C29.7924 2.78681 32.2622 1.8379 34.7057 0.818708C37.3249 -0.270776 36.4987 -0.103839 39.074 0.871425C41.8074 1.91698 44.5146 3.05918 47.2305 4.15745C49.586 5.10635 51.9328 6.04647 54.2883 6.98659C55.2463 7.37318 55.4485 7.66312 55.4573 8.6911C55.4573 14.5251 55.4661 20.3591 55.4485 26.1931C55.4485 26.8257 55.5979 27.1596 56.2307 27.4056C59.4037 28.6357 62.5591 29.9185 65.7144 31.1925C67.7008 31.992 69.6697 32.8003 71.6561 33.5999C72.4119 33.9074 72.7723 34.4258 72.7635 35.2604C72.7459 38.441 72.7547 41.6216 72.7547 44.811ZM18.2344 51.1722C18.2344 48.6154 18.2256 46.0586 18.2432 43.5019C18.2432 43.0538 18.1466 42.799 17.6807 42.6145C15.1055 41.6128 12.5565 40.5585 9.9988 39.5305C8.05636 38.7486 6.10516 37.9666 4.16272 37.1758C3.86388 37.0528 3.73204 37.1143 3.72325 37.4306C3.71446 37.5976 3.71445 37.7733 3.71445 37.9402C3.71445 42.8078 3.70567 47.6753 3.72325 52.534C3.72325 53.6323 3.46834 53.6235 4.74279 54.098C5.05921 54.2122 5.37564 54.344 5.69206 54.467C9.67363 56.0749 13.6464 57.6739 17.628 59.2818C18.1993 59.5102 18.252 59.4839 18.252 58.8337C18.2344 56.2857 18.2344 53.729 18.2344 51.1722ZM20.8976 51.1283C20.8976 53.685 20.8976 56.2418 20.8976 58.7986C20.8976 59.4048 21.0031 59.4839 21.5041 59.2906C23.6838 58.4208 25.8548 57.5421 28.0345 56.6635C30.2231 55.7761 32.4116 54.8712 34.6178 54.0189C35.1891 53.7992 35.4528 53.5532 35.4528 52.8943C35.4264 47.8949 35.4352 42.8956 35.4352 37.8875C35.4352 37.7733 35.4352 37.6591 35.4352 37.5448C35.4439 37.1758 35.3473 36.9913 34.9342 37.2022C34.6177 37.3691 34.275 37.4921 33.941 37.6239C29.7924 39.2845 25.6526 40.9539 21.5041 42.5881C21.0294 42.7726 20.8888 43.0274 20.8976 43.5106C20.9064 46.0498 20.8976 48.5891 20.8976 51.1283ZM38.1862 45.3294C38.1862 47.5611 38.1687 49.8015 38.195 52.0332C38.2126 54.0277 37.8522 53.5093 39.7683 54.3C43.8641 55.987 47.9776 57.6036 52.0822 59.2467C52.6095 59.4575 52.7238 59.4048 52.7238 58.8249C52.7326 53.6762 52.7238 48.5188 52.7326 43.3701C52.7326 43.0011 52.6271 42.7726 52.2668 42.632C50.9132 42.0961 49.5773 41.525 48.2237 40.9802C45.1211 39.7326 42.0008 38.5025 38.8982 37.2637C38.239 37.0001 38.2038 37.0089 38.2038 37.7118C38.1862 40.251 38.1862 42.7902 38.1862 45.3294ZM38.1862 24.5853C38.1862 27.142 38.1862 29.6988 38.1862 32.2556C38.1862 32.8882 38.195 32.897 38.8015 32.6685C39.8826 32.2556 40.9549 31.8514 42.0272 31.4209C45.4111 30.059 48.795 28.6708 52.1789 27.3178C52.5744 27.1596 52.7326 26.9487 52.7326 26.5182C52.7238 21.3695 52.7238 16.2208 52.7326 11.0634C52.7326 10.5713 52.592 10.4659 52.1349 10.6504C50.2452 11.4236 48.3467 12.1792 46.4482 12.9436C43.8993 13.9628 41.3592 14.9908 38.8103 15.9924C38.3532 16.1681 38.1774 16.4229 38.1774 16.9149C38.195 19.4717 38.1862 22.0285 38.1862 24.5853ZM35.4264 24.5589C35.4264 22.0021 35.4176 19.4454 35.4352 16.8886C35.4352 16.3966 35.2594 16.1418 34.8024 15.9573C32.1919 14.9381 29.5991 13.8925 26.9974 12.8557C25.1692 12.1265 23.3499 11.3709 21.5217 10.6416C20.9767 10.422 20.8976 10.4835 20.8888 11.0634C20.88 12.3461 20.8888 13.6377 20.8888 14.9293C20.8888 18.7776 20.8976 22.6172 20.88 26.4655C20.88 26.896 20.9855 27.142 21.4425 27.2914C22.4094 27.6253 23.341 28.0382 24.2903 28.416C27.8148 29.8394 31.3481 31.254 34.8639 32.6949C35.3825 32.9058 35.4264 32.7212 35.4264 32.2819C35.4264 29.7164 35.4264 27.142 35.4264 24.5589ZM70.0037 45.4172C70.0037 42.8253 70.0037 40.2246 70.0037 37.6327C70.0037 37.1846 69.9333 36.9913 69.4235 37.2285C68.4215 37.6766 67.3844 38.0457 66.3649 38.4586C62.9282 39.838 59.4916 41.235 56.0462 42.5969C55.5979 42.7726 55.4485 43.001 55.4485 43.4755C55.4573 48.5715 55.4573 53.6674 55.4573 58.7634C55.4573 59.4048 55.5803 59.4927 56.1516 59.2554C57.6283 58.6668 59.0961 58.0517 60.5639 57.4631C63.4995 56.2857 66.4264 55.1084 69.3708 53.9486C69.8103 53.7729 70.0212 53.5444 70.0212 53.0348C69.9949 50.4956 70.0037 47.9564 70.0037 45.4172ZM33.1412 34.9617C31.8052 34.417 30.6186 33.9337 29.4233 33.4593C26.5316 32.2907 23.6399 31.1046 20.7306 29.9712C20.256 29.7867 19.7989 29.3913 19.2276 29.6109C18.2784 29.98 17.3291 30.3578 16.3799 30.7444C13.4794 31.9041 10.5877 33.0639 7.696 34.25C7.16864 34.4609 6.60613 34.6278 6.06119 35.0144C6.59734 35.2165 7.05441 35.3835 7.51146 35.568C11.4139 37.1319 15.3076 38.6958 19.2013 40.2773C19.4737 40.3916 19.6847 40.3828 19.9483 40.2773C21.8381 39.5042 23.7366 38.7486 25.6351 37.9842C28.0873 36.9825 30.5395 35.9985 33.1412 34.9617ZM67.6394 34.9881C67.2439 34.8036 66.9889 34.663 66.7164 34.5488C65.9957 34.2588 65.2662 33.9952 64.5543 33.7053C61.188 32.3434 57.8128 30.9816 54.4465 29.6197C54.2268 29.5319 54.007 29.5231 53.7873 29.6109C52.8732 29.9712 51.9591 30.3314 51.045 30.7004C48.127 31.869 45.2177 33.0375 42.3084 34.2237C41.7723 34.4433 41.1922 34.6103 40.656 35.0056C41.869 35.4977 43.0028 35.9721 44.1366 36.429C47.1162 37.6239 50.1046 38.8276 53.093 40.005C53.55 40.1807 53.9543 40.5146 54.5784 40.251C57.4437 39.0473 60.3354 37.9227 63.2183 36.7717C64.6422 36.1918 66.0749 35.6207 67.6394 34.9881ZM36.8678 13.7959C37.1403 13.6992 37.4655 13.6114 37.782 13.4796C39.364 12.847 40.9373 12.188 42.5106 11.5554C44.9541 10.5713 47.3975 9.60487 49.8321 8.6296C49.9552 8.58567 50.1046 8.55931 50.1222 8.39237C50.131 8.21665 49.9728 8.19029 49.8585 8.14636C48.6807 7.67191 47.5117 7.18867 46.334 6.72301C43.3807 5.54566 40.4275 4.36832 37.4831 3.18218C37.0348 2.99767 36.6305 2.98889 36.1735 3.1734C32.0513 4.83398 27.9203 6.48578 23.7981 8.13758C23.6662 8.19029 23.4641 8.19908 23.4817 8.40116C23.4993 8.59446 23.6926 8.59446 23.8333 8.64717C24.554 8.92833 25.2835 9.19192 26.0042 9.48186C29.0541 10.7207 32.0952 11.9683 35.1539 13.1808C35.6988 13.4005 36.2174 13.6904 36.8678 13.7959Z" fill="black"/>
<path d="M61.478 54.7657C60.5288 54.7657 59.764 53.9837 59.764 53.0173C59.764 52.0947 60.6518 51.2249 61.5659 51.2425C62.436 51.2688 63.2534 52.1123 63.2622 52.9997C63.271 53.9486 62.4536 54.7657 61.478 54.7657Z" fill="black"/>
<path d="M59.4212 47.7544C59.43 46.7791 60.1596 46.0586 61.144 46.0586C62.1108 46.0586 62.8579 46.8055 62.8667 47.7807C62.8667 48.7736 62.102 49.5292 61.1 49.5116C60.142 49.4852 59.4124 48.7296 59.4212 47.7544Z" fill="black"/>
<path d="M68.4479 50.0475C68.4479 51.0755 67.78 51.7257 66.7341 51.7257C65.7497 51.7257 64.9937 50.9701 65.0201 50.0124C65.0377 49.0459 65.82 48.2815 66.7605 48.2815C67.7097 48.2903 68.4479 49.0723 68.4479 50.0475Z" fill="black"/>
</svg>
