<svg width="55" height="53" viewBox="0 0 55 53" fill="none" xmlns="http://www.w3.org/2000/svg">
<path d="M29.5543 37.4739V52.4982H25.5552V28.3627C21.3715 27.2468 17.469 26.6406 13.9357 25.1645C5.58582 21.6852 0.180366 12.6442 0.79562 3.62083C0.865935 2.5577 2.03494 0.721397 2.76445 0.686252C9.62893 0.308447 16.5813 -0.174792 22.391 4.79817C26.522 8.339 28.4557 12.9869 29.484 19.0669C35.2235 11.669 42.8087 11.3087 50.64 11.4757C53.4613 11.5372 54.4897 12.6618 54.4546 15.4382C54.3227 26.4648 45.9465 35.7518 34.995 36.8589C33.3074 37.0346 31.6111 37.2367 29.5543 37.4739ZM5.07603 4.99147C3.74883 12.8902 12.0372 23.5215 23.4633 23.4512C24.1665 23.4512 25.4497 22.0015 25.4849 21.1844C25.9595 9.7975 16.4231 2.29412 5.07603 4.99147ZM50.1126 15.9917C37.4648 13.6371 27.9459 21.6588 29.9323 32.7645C39.8379 34.9611 50.0247 26.5966 50.1126 15.9917Z" fill="black" stroke="white" stroke-width="0.4331" stroke-miterlimit="10"/>
</svg>
