<svg width="94" height="99" viewBox="0 0 94 99" fill="none" xmlns="http://www.w3.org/2000/svg">
<path d="M44.4617 10.2795L44.311 17.5266C45.3097 16.5855 46.2143 15.9329 47.0372 15.5753C47.8601 15.2176 48.8275 15.0357 49.9519 15.0357C52.094 15.0357 53.8089 15.6443 55.1092 16.8615C56.4032 18.0788 57.0502 19.6788 57.0502 21.6616V27.8734C57.0502 29.3354 57.0628 30.1448 57.0879 30.2891C57.1884 31.5314 57.5088 32.1463 58.0553 32.1463C58.2563 32.1463 58.539 32.0773 58.9096 31.9393C59.0603 31.9079 59.2551 31.8891 59.5063 31.8891C60.4235 31.8891 60.882 32.3095 60.882 33.1566C60.882 33.9973 60.2853 34.424 59.0918 34.424C58.7714 34.424 58.294 34.3864 57.6784 34.3111C56.6356 34.1856 55.7876 34.1228 55.1469 34.1228C54.4998 34.1228 54.0036 34.1479 53.6581 34.1981C52.6153 34.3487 51.9683 34.424 51.7233 34.424C51.2773 34.424 50.9067 34.2922 50.6052 34.035C50.3037 33.7715 50.1592 33.4452 50.1592 33.0499C50.1592 32.7299 50.2911 32.4538 50.5487 32.2342C50.8062 32.0083 51.114 31.9016 51.4595 31.9016C51.7359 31.9016 52.0563 31.9644 52.4269 32.0899C52.653 32.1652 52.8603 32.2028 53.0613 32.2028C53.8089 32.2028 54.192 31.3997 54.2172 29.7871C54.2172 29.4922 54.2423 28.9087 54.2925 28.0365V26.4365V24.4287C54.2925 21.9 54.0413 20.1996 53.545 19.3337C52.8226 18.0412 51.5475 17.4012 49.732 17.4012C47.7659 17.4012 46.3274 18.0725 45.4354 19.409C44.8135 20.3251 44.4868 21.7996 44.4617 23.8388V26.5181C44.4617 26.6687 44.4115 26.9134 44.311 27.2647V27.9738C44.311 29.3855 44.3235 30.2075 44.3486 30.4271C44.4743 31.6444 44.8449 32.2467 45.4605 32.2467C45.6615 32.2467 45.9505 32.1903 46.3211 32.0773C46.6917 31.9644 46.9681 31.9079 47.144 31.9079C47.9606 31.9079 48.3689 32.3032 48.3689 33.0938C48.3689 33.9911 47.8161 34.4366 46.7168 34.4366C46.3651 34.4366 45.8437 34.3989 45.1401 34.3236C44.1916 34.2232 43.375 34.173 42.7028 34.173C42.2757 34.173 41.6915 34.2107 40.9377 34.286C39.9389 34.3864 39.2982 34.4366 39.0281 34.4366C38.0041 34.4366 37.489 33.9785 37.489 33.0562C37.489 32.2907 37.9665 31.9079 38.9338 31.9079C39.2605 31.9079 39.4992 31.9456 39.6562 32.0146C40.0834 32.1212 40.3912 32.1714 40.5671 32.1714C40.9691 32.1714 41.2455 31.795 41.3837 31.0358C41.5219 30.2765 41.6035 28.733 41.6287 26.4051V19.7227C41.6287 16.0019 41.5533 13.6553 41.4088 12.6764C41.2581 11.6976 40.9126 11.2082 40.3661 11.2082C40.1902 11.2082 39.9326 11.2458 39.5808 11.3211C39.2354 11.3964 38.959 11.4341 38.7642 11.4341C37.9225 11.4341 37.4953 11.0388 37.4953 10.2419C37.4953 9.8968 37.6461 9.59562 37.9413 9.35091C38.2366 9.1062 38.6009 8.98071 39.0218 8.98071C39.1474 8.98071 39.5683 9.01836 40.2907 9.09365C40.7618 9.14385 41.2706 9.16895 41.8171 9.16895C42.0433 9.16895 42.3511 9.13758 42.7468 9.07483C43.1426 9.01209 43.4315 8.98071 43.6011 8.98071C44.1728 8.98071 44.4554 9.38856 44.4554 10.2105V10.2795H44.4617Z" fill="white"/>
<path d="M72.767 27.3969V24.7553C72.2205 25.251 71.6488 25.5961 71.0395 25.7969C70.4302 25.9977 69.3497 26.1671 67.7919 26.3177C64.9714 26.5938 63.5643 27.6291 63.5643 29.4424C63.5643 30.3836 63.9035 31.1303 64.5882 31.6762C65.2729 32.222 66.1963 32.4919 67.3647 32.4919C69.0294 32.4919 70.336 32.0401 71.2908 31.1366C72.2519 30.233 72.7418 28.9844 72.767 27.3969ZM76.9003 34.8009C74.8651 34.8009 73.6087 33.9225 73.1376 32.1593C71.8687 34.0166 69.8837 34.9515 67.1763 34.9515C65.1661 34.9515 63.558 34.4558 62.3519 33.4644C61.1459 32.473 60.5491 31.1491 60.5491 29.4863C60.5491 27.4283 61.4285 25.9161 63.1937 24.9498C63.8658 24.5796 64.4437 24.3349 64.9274 24.222C65.4111 24.1091 66.3848 23.971 67.8484 23.7953C69.9339 23.5694 71.2908 23.262 71.9252 22.8667C72.5597 22.4714 72.8738 21.7373 72.8738 20.6706C72.8738 19.6541 72.522 18.8573 71.8122 18.2737C71.1023 17.6902 70.1161 17.4016 68.8535 17.4016C67.7354 17.4016 66.6926 17.7153 65.7252 18.3302C65.3546 18.5812 65.1661 18.8384 65.1661 19.1082C65.1661 19.2086 65.2792 19.3341 65.4991 19.4784C65.8446 19.7294 66.0204 20.1498 66.0204 20.7459C66.0204 21.2416 65.8383 21.6494 65.4802 21.9757C65.1222 22.2957 64.6699 22.4588 64.1234 22.4588C63.4764 22.4588 62.9361 22.233 62.5027 21.7875C62.0693 21.342 61.8494 20.7961 61.8494 20.1498C61.8494 18.7631 62.5404 17.571 63.9161 16.5796C65.2918 15.5882 66.9627 15.0925 68.9226 15.0925C73.4391 15.0925 75.7005 17.2572 75.7005 21.5867V29.0848C75.7005 30.2707 75.7256 30.9797 75.7759 31.1993C75.9267 32.0652 76.3475 32.4981 77.0448 32.4981C77.9117 32.4981 78.3451 31.7075 78.3451 30.1326V28.3256C78.3451 27.535 78.722 27.1459 79.4821 27.1459C80.2862 27.1459 80.6945 27.742 80.6945 28.9279V29.1161V31.2369C80.6505 33.6087 79.3816 34.8009 76.9003 34.8009Z" fill="white"/>
<path d="M90.7514 29.1535V26.7754C90.7766 25.7589 91.2226 25.2507 92.0894 25.2507C92.9563 25.2507 93.396 25.8217 93.396 26.9636C93.396 29.668 93.0505 31.5503 92.3595 32.617C91.4236 34.0539 89.8846 34.7755 87.7362 34.7755C85.7638 34.7755 84.3567 34.1417 83.5212 32.8806C82.9056 31.9645 82.5978 30.4021 82.5978 28.1935V19.2585C82.5978 18.7377 82.3591 18.4742 81.8754 18.4742H80.6568C80.2485 18.4742 79.9155 18.3424 79.6454 18.0852C79.3816 17.8216 79.2434 17.5079 79.2434 17.1377C79.2434 16.7926 79.3753 16.4789 79.6329 16.2091C79.8967 15.933 80.1856 15.8012 80.506 15.8012H81.9571C82.378 15.8012 82.5915 15.5628 82.5915 15.0922V11.2585C82.5915 10.3173 83.0752 9.84668 84.0426 9.84668C84.9346 9.84668 85.3806 10.3173 85.3806 11.2585V15.2365C85.3806 15.6067 85.6067 15.795 86.0527 15.795H90.1107C91.053 15.795 91.5241 16.2279 91.5241 17.0938C91.5241 18.0099 91.0153 18.4679 89.9976 18.4679H85.902C85.5565 18.4679 85.3806 18.7314 85.3806 19.2522V28.4005C85.3806 31.0045 86.2475 32.3033 87.9875 32.3033C89.7589 32.3158 90.6761 31.2617 90.7514 29.1535Z" fill="white"/>
<path d="M41.4465 44.1056C39.7065 44.1056 38.3433 44.7143 37.3508 45.9252C36.3583 47.1425 35.8118 48.8617 35.7113 51.0955V51.5786C35.7113 53.9065 36.2013 55.7386 37.1812 57.0688C38.1612 58.3928 39.5306 59.0579 41.2957 59.0579C43.1049 59.0579 44.5308 58.3928 45.561 57.0688C46.5912 55.7449 47.1063 53.9002 47.1063 51.5472C47.1063 46.5841 45.2218 44.1056 41.4465 44.1056ZM41.2643 61.5112C38.6574 61.5112 36.5719 60.614 35.0078 58.8132C33.4436 57.0124 32.6647 54.6029 32.6647 51.5786C32.6647 48.5543 33.4499 46.1448 35.0266 44.3441C36.6033 42.5495 38.7202 41.646 41.3774 41.646C44.0848 41.646 46.2206 42.5244 47.7847 44.2876C49.3489 46.0507 50.1278 48.4413 50.1278 51.4657C50.1278 54.49 49.3237 56.9245 47.7093 58.7567C46.0887 60.5951 43.9403 61.5112 41.2643 61.5112Z" fill="white"/>
<path d="M66.7743 59.9176V58.7631C65.4551 60.5764 63.5078 61.48 60.926 61.48C57.9987 61.48 55.9572 60.5764 54.8202 58.7631C54.3239 57.9725 54.0538 57.0376 54.0036 55.9709C53.9785 55.4501 53.9659 54.3583 53.9659 52.6956V49.6085C53.9659 46.214 53.6016 44.5136 52.8729 44.5136C52.7221 44.5136 52.4834 44.5324 52.1568 44.57C51.8301 44.6077 51.5789 44.6265 51.403 44.6265C50.5235 44.6265 50.0838 44.2249 50.0838 43.4155C50.0838 42.6312 50.6178 42.2422 51.6856 42.2422C51.9306 42.2422 52.3012 42.2736 52.7849 42.3363C53.2686 42.3991 53.633 42.4304 53.8842 42.4304C54.1104 42.4304 54.4936 42.3928 55.0401 42.3175C55.4107 42.2673 55.6243 42.2422 55.6745 42.2422C56.4409 42.2422 56.8303 42.7128 56.8303 43.654V44.4383V46.854L56.7173 49.6085V52.0242C56.7173 54.1827 56.8932 55.7325 57.2387 56.6737C57.8103 58.236 59.1734 59.0203 61.3343 59.0203C62.4022 59.0203 63.3444 58.7756 64.1674 58.2925C64.984 57.8093 65.5556 57.1693 65.8822 56.3787C66.278 55.4125 66.479 53.574 66.479 50.8697V48.8242V46.4085C66.3534 45.2163 66.033 44.6265 65.5116 44.6265H64.8395H64.3935C63.5266 44.6265 63.0932 44.2563 63.0932 43.5096C63.0932 42.6689 63.5769 42.2485 64.5443 42.2485C64.7704 42.2485 65.1096 42.2736 65.5682 42.3238C66.0267 42.374 66.3659 42.3991 66.5921 42.3991C66.7931 42.3991 67.0883 42.374 67.4841 42.3238C67.8798 42.2736 68.1813 42.2485 68.3761 42.2485C69.1236 42.2485 69.4942 42.6438 69.4942 43.4406C69.4942 43.7857 69.4691 44.0618 69.4188 44.2626C69.2932 45.2101 69.2304 46.5967 69.2304 48.4414V54.1827C69.2304 55.7011 69.2429 56.5419 69.2681 56.7176C69.3937 58.0352 69.7392 58.6941 70.3108 58.6941C70.4867 58.6941 70.7317 58.6627 71.0584 58.5999C71.3787 58.5372 71.63 58.5058 71.8059 58.5058C72.6476 58.5058 73.0748 58.9137 73.0748 59.7356C73.0748 60.5764 72.5534 61.0031 71.5106 61.0031C71.2845 61.0031 70.9641 60.978 70.5433 60.9278C69.9214 60.8525 69.5382 60.8149 69.3874 60.8149C69.312 60.8149 69.0545 60.84 68.6022 60.8901C68.307 60.9654 68.0431 61.0031 67.8233 61.0031C67.1197 60.9968 66.7743 60.6329 66.7743 59.9176Z" fill="white"/>
<path d="M35.6422 78.3207C35.6422 78.6658 35.9123 78.8415 36.4588 78.8415H45.36C45.8814 78.8415 46.1389 78.6658 46.1389 78.3207C46.1389 77.0093 45.6427 75.8673 44.6502 74.9011C43.6577 73.9348 42.4893 73.4516 41.1513 73.4516C39.763 73.4516 38.4941 73.9536 37.3508 74.9575C36.2139 75.9615 35.6422 77.0846 35.6422 78.3207ZM49.1604 79.287C49.1604 80.2282 49.0976 80.8054 48.972 81.0187C48.8463 81.2321 48.4883 81.3325 47.8915 81.3325H36.0505C35.7302 81.3325 35.5166 81.3764 35.4161 81.4642C35.3156 81.5521 35.2653 81.6964 35.2653 81.8909C35.2653 83.7482 35.8244 85.298 36.9425 86.5404C38.0607 87.7827 39.4489 88.4039 41.1136 88.4039C42.2066 88.4039 43.2054 88.1027 44.1099 87.5129C45.0145 86.9168 45.605 86.1639 45.8814 85.2415L46.2143 84.1623C46.3902 83.5662 46.7985 83.2713 47.4455 83.2713C48.3626 83.2713 48.8212 83.7419 48.8212 84.6831C48.8212 86.2956 48.0046 87.7262 46.3651 88.9812C44.7255 90.2361 42.8662 90.8635 40.7806 90.8635C38.1737 90.8635 36.1008 89.9914 34.5618 88.2407C33.0228 86.4902 32.2501 84.1435 32.2501 81.1944C32.2501 78.1701 33.0667 75.7168 34.7063 73.8281C36.3458 71.9457 38.4815 70.9983 41.1136 70.9983C43.4441 70.9983 45.3726 71.7763 46.8864 73.3387C48.4066 74.9011 49.1604 76.8838 49.1604 79.287Z" fill="white"/>
<path d="M53.8151 78.3207C53.8151 78.6658 54.0852 78.8415 54.6318 78.8415H63.5329C64.0543 78.8415 64.3181 78.6658 64.3181 78.3207C64.3181 77.0093 63.8219 75.8673 62.8293 74.9011C61.8368 73.9348 60.6685 73.4516 59.3305 73.4516C57.9422 73.4516 56.6733 73.9536 55.53 74.9575C54.3868 75.9615 53.8151 77.0846 53.8151 78.3207ZM67.3333 79.287C67.3333 80.2282 67.2705 80.8054 67.1449 81.0187C67.0192 81.2321 66.6612 81.3325 66.0644 81.3325H54.2297C53.9094 81.3325 53.6958 81.3764 53.5953 81.4642C53.4948 81.5521 53.4445 81.6964 53.4445 81.8909C53.4445 83.7482 54.0036 85.298 55.1217 86.5404C56.2399 87.7827 57.6281 88.4039 59.2928 88.4039C60.3858 88.4039 61.3846 88.1027 62.2891 87.5129C63.1937 86.9168 63.7842 86.1639 64.0606 85.2415L64.3935 84.1623C64.5694 83.5662 64.9777 83.2713 65.6247 83.2713C66.5418 83.2713 67.0004 83.7419 67.0004 84.6831C67.0004 86.2956 66.1775 87.7262 64.5443 88.9812C62.9047 90.2361 61.0454 90.8635 58.9598 90.8635C56.3529 90.8635 54.28 89.9914 52.741 88.2407C51.202 86.4902 50.4293 84.1435 50.4293 81.1944C50.4293 78.1701 51.2459 75.7168 52.8854 73.8281C54.525 71.9457 56.6607 70.9983 59.2928 70.9983C61.6233 70.9983 63.5517 71.7763 65.0656 73.3387C66.5795 74.9011 67.3333 76.8838 67.3333 79.287Z" fill="white"/>
<path d="M82.3088 84.1311C82.4094 83.3091 82.4596 82.2613 82.4596 80.9687C82.4596 79.306 82.3968 78.1766 82.2712 77.5805C82.045 76.3381 81.5111 75.3718 80.6568 74.6754C79.658 73.8597 78.5084 73.4455 77.2081 73.4455C75.4555 73.4455 74.0861 74.1044 73.0999 75.4158C72.1137 76.7334 71.6174 78.5279 71.6174 80.8119C71.6174 83.1648 72.1262 85.0221 73.1564 86.3711C74.1804 87.7201 75.5812 88.3978 77.3589 88.3978C78.7094 88.3978 79.8339 88.0088 80.7322 87.2245C81.6304 86.459 82.1581 85.4237 82.3088 84.1311ZM76.9443 70.9985C79.4004 70.9985 81.241 71.9522 82.4533 73.8659V70.1075C82.4533 69.1161 82.4282 68.5075 82.3779 68.2879C82.2523 67.5161 81.9068 67.1333 81.3352 67.1333C81.1342 67.1333 80.8578 67.171 80.4997 67.2463C80.1417 67.3216 79.859 67.3592 79.6643 67.3592C78.7471 67.3592 78.2886 66.9639 78.2886 66.1671C78.2886 65.3514 78.9105 64.9373 80.1479 64.9373C80.349 64.9373 80.707 64.9624 81.2284 65.0125C82.0199 65.0878 82.4345 65.1255 82.4596 65.1255C82.6858 65.1255 83.0061 65.0941 83.427 65.0314C83.8479 64.9686 84.1745 64.9373 84.3944 64.9373C85.0916 64.9373 85.4371 65.4329 85.4371 66.4306V66.8384C85.412 66.9137 85.3869 67.5726 85.3617 68.8149C85.3617 68.9655 85.3241 69.9192 85.2487 71.6824C85.1984 72.9248 85.1733 73.8659 85.1733 74.5122V78.164V84.3884C85.1984 86.026 85.2738 87.0488 85.3994 87.4441C85.5251 87.8394 85.8266 88.0401 86.3103 88.0401C86.6369 88.0401 86.8945 88.015 87.0704 87.9648C87.4724 87.9146 87.7551 87.8896 87.9058 87.8896C88.8418 87.8896 89.3066 88.2974 89.3066 89.1194C89.3066 89.9602 88.7476 90.3868 87.6294 90.3868C87.3782 90.3868 87.0013 90.3555 86.4925 90.2927C85.9836 90.23 85.6067 90.1986 85.3555 90.1986C85.2801 90.1986 84.9974 90.2237 84.5012 90.2739C84.2059 90.3492 83.9421 90.3868 83.7222 90.3868C83.0501 90.3868 82.7172 89.9413 82.7172 89.0504V88.8621V88.2284C81.4043 89.9915 79.5009 90.87 76.9945 90.87C74.4693 90.87 72.4403 89.9539 70.9013 88.1154C69.3686 86.2833 68.5959 83.8738 68.5959 80.8997C68.5959 77.9005 69.356 75.5036 70.8699 73.7028C72.3901 71.902 74.4128 70.9985 76.9443 70.9985Z" fill="white"/>
<path d="M28.8643 90.0353C28.5691 90.28 28.2047 90.4055 27.7838 90.4055C27.4384 90.4055 26.8667 90.3553 26.0689 90.2549C25.2775 90.1545 24.5299 90.1043 23.8327 90.1043C23.1857 90.1043 22.6517 90.1294 22.2308 90.1796C20.9871 90.3302 20.3338 90.3992 20.2584 90.3992C19.2659 90.3992 18.7696 89.9662 18.7696 89.1003C18.7696 88.3349 19.1968 87.9458 20.0637 87.9458C20.2647 87.9458 20.4908 87.9709 20.7484 88.0211C21.2258 88.1215 21.5336 88.1717 21.6592 88.1717C22.2685 88.1717 22.5952 87.4878 22.6454 86.1262V84.2313V81.9599V79.1364C22.6454 77.8187 22.5826 76.9152 22.457 76.4195C22.2371 75.4783 21.7534 74.7442 21.0122 74.2234C20.1956 73.6524 19.2659 73.3701 18.2294 73.3701C16.2507 73.3701 14.831 74.0791 13.9641 75.4909C13.3737 76.4571 13.0721 78.1073 13.0721 80.4415V85.3921C13.0721 86.4839 13.1475 87.2243 13.292 87.6258C13.4428 88.0211 13.7129 88.2219 14.1086 88.2219C14.3096 88.2219 14.5797 88.178 14.9252 88.0901C15.2707 88.0023 15.5597 87.9584 15.7795 87.9584C16.5459 87.9584 16.9354 88.3725 16.9354 89.207C16.9354 90.0164 16.4391 90.418 15.4466 90.418C15.2456 90.418 14.6049 90.3427 13.5119 90.1984C12.9654 90.1231 12.356 90.0854 11.6839 90.0854C11.1625 90.0854 10.4652 90.1357 9.59837 90.236C8.50536 90.3615 7.88347 90.4243 7.73899 90.4243C6.69623 90.4243 6.17485 90.0039 6.17485 89.1568C6.17485 88.3662 6.57688 87.9646 7.38722 87.9646C7.51285 87.9646 7.74527 88.0023 8.09077 88.0776C8.42998 88.1529 8.76919 88.1905 9.09584 88.1905C9.85592 88.1905 10.2454 87.469 10.2705 86.0321V81.9034V77.4046V76.1058C10.2203 75.265 10.1135 74.6877 9.95014 74.374C9.78682 74.0665 9.49786 73.9097 9.09584 73.9097C8.91995 73.9097 8.6624 73.941 8.31691 74.0038C7.9777 74.0665 7.71386 74.0979 7.53798 74.0979C6.62713 74.0979 6.17485 73.7026 6.17485 72.9057C6.17485 72.09 6.73392 71.6759 7.85206 71.6759C8.00282 71.6759 8.12217 71.6885 8.22268 71.7136L9.59837 71.8642C9.99412 71.8642 10.3459 71.8328 10.6411 71.77C11.2881 71.7073 11.6211 71.6759 11.6462 71.6759C12.3686 71.6759 12.7266 72.0524 12.7266 72.8116V73.872C14.2154 71.9897 16.2004 71.0422 18.688 71.0422C20.026 71.0422 21.2949 71.381 22.4884 72.0649C23.6819 72.7489 24.486 73.5959 24.9068 74.6124C25.2523 75.4595 25.4282 76.5575 25.4282 77.9254V84.9905C25.4282 86.0572 25.4408 86.6909 25.4659 86.8854C25.5915 87.7325 25.9245 88.1529 26.471 88.1529C26.6908 88.1529 26.9861 88.1215 27.3441 88.0588C27.7022 87.996 27.9597 87.9646 28.1105 87.9646C28.4309 87.9646 28.7135 88.0776 28.946 88.2972C29.1847 88.5231 29.2977 88.7929 29.2977 89.1129C29.3103 89.4768 29.1658 89.7905 28.8643 90.0353ZM30.2777 44.5322C30.0829 44.6577 29.8254 44.7267 29.4987 44.7267C29.2475 44.7267 29.0653 44.7016 28.9397 44.6514C28.6193 44.5761 28.3932 44.5385 28.2675 44.5385C27.7964 44.5385 27.3127 45.1722 26.8165 46.4334L21.7534 59.0829C20.6353 61.8876 19.58 63.9206 18.5875 65.1818C16.8977 67.3402 14.787 68.4194 12.2555 68.4194C10.7416 68.4194 9.46645 68.0367 8.43626 67.2649C7.70758 66.719 7.23646 66.0916 7.02916 65.3826C5.4022 71.1551 3.47373 77.0156 2.28649 83.196C0.822858 90.8384 4.58559 96.3475 12.0419 98.2612C15.679 99.1898 19.5046 99.1459 23.2233 98.6628C25.5224 98.3616 26.9672 97.7906 28.8329 96.4165C32.9725 93.367 31.3518 87.7137 30.0641 83.6289C25.579 69.4296 26.6971 58.0664 30.2777 44.5322Z" fill="white"/>
<path d="M10.7291 62.3649C11.0997 62.6975 11.2881 63.1179 11.2881 63.6136C11.2881 64.4041 10.9301 64.9187 10.2077 65.1383C10.5783 65.6842 11.2881 65.954 12.3309 65.954C13.6438 65.954 14.831 65.4645 15.8863 64.4857C16.9417 63.5069 17.4693 62.4088 17.4693 61.1916C17.4693 60.5704 17.1364 59.4221 16.4642 57.7343L12.3686 47.3938L11.9226 46.2017C11.5017 45.0848 11.018 44.5264 10.4715 44.5264C10.3396 44.5264 10.1009 44.5515 9.77425 44.6079C10.3899 50.6315 9.3785 56.4543 7.85834 62.3273C8.26037 62.0198 8.74405 61.8629 9.31569 61.8629C9.88732 61.8567 10.3584 62.0261 10.7291 62.3649Z" fill="white"/>
<path d="M35.793 16.9681C35.7867 17.7838 35.3784 18.1916 34.5681 18.1916C34.2917 18.1916 34.0844 18.1477 33.9336 18.0599C33.5379 17.972 33.3117 17.9281 33.2615 17.9281C32.5893 17.9281 31.8921 19.3148 31.176 22.0819L28.6444 31.7196C28.3492 32.8929 27.9974 33.7086 27.6017 34.1729C27.2059 34.6372 26.6594 34.8631 25.9622 34.8631C24.6493 34.8631 23.7636 33.8215 23.3176 31.7384L20.5222 18.4991L17.6201 31.4874C17.3437 32.7235 16.9982 33.5957 16.5773 34.1039C16.1564 34.6121 15.5848 34.8631 14.8624 34.8631C13.694 34.8631 12.9151 34.0913 12.5194 32.5541L8.94507 19.1328C8.71893 18.336 8.37344 17.9407 7.90231 17.9407C7.75155 17.9407 7.53169 17.9909 7.23017 18.0975C6.83443 18.1665 6.55803 18.1979 6.41355 18.1979C5.59693 18.1979 5.18234 17.7963 5.18234 16.9869C5.18234 16.1085 5.74141 15.663 6.85955 15.663C7.06057 15.663 7.19248 15.6755 7.26786 15.7069L8.86969 15.9579C9.21518 16.0144 9.67375 16.0395 10.2454 16.0395C10.9426 16.0395 11.7341 15.983 12.6261 15.8763C13.7443 15.7383 14.3913 15.6693 14.5609 15.6693C15.6539 15.6693 16.2004 16.0959 16.2004 16.9556C16.2004 17.7901 15.7419 18.1979 14.8247 18.1979C14.6488 18.1979 14.341 18.1665 13.895 18.1101C13.5747 17.9971 13.2606 17.9344 12.9653 17.9344C12.3183 17.9344 11.998 18.3046 11.998 19.0513C11.998 19.5469 12.0859 20.1556 12.2555 20.8771L14.9755 32.2153L17.8776 19.1203C18.1791 17.7336 18.5058 16.805 18.8639 16.3469C19.2219 15.8889 19.7747 15.6567 20.5222 15.6567C21.2886 15.6567 21.8539 15.8952 22.2183 16.3657C22.5763 16.8363 22.9093 17.7524 23.2045 19.1203L25.9998 32.2153L28.7575 20.8771C28.9334 20.1556 29.015 19.5344 29.015 19.0136V18.9383C29.015 18.2669 28.7324 17.9344 28.1607 17.9344C27.9409 17.9344 27.6142 17.9783 27.1934 18.0661C26.7725 18.154 26.4521 18.1979 26.226 18.1979C25.3089 18.1979 24.8503 17.7901 24.8503 16.9681C24.8503 16.1022 25.4596 15.6693 26.672 15.6693C26.8479 15.6693 27.03 15.6818 27.2311 15.7132L28.7575 15.9203C29.1532 15.9767 29.7751 16.0018 30.6232 16.0018C31.2953 16.0018 31.936 15.9579 32.5579 15.8763L33.7891 15.7069C33.8896 15.6818 34.0278 15.663 34.1974 15.663C35.1146 15.663 35.6359 15.983 35.7679 16.6167C35.4538 13.4293 34.5618 10.3108 32.872 7.6002C28.0979 -0.073573 17.2871 -1.73005 9.40992 1.70212C5.61578 3.36488 2.2488 6.31392 0.829135 10.1916C-1.81545 17.4199 2.43096 25.1627 5.65347 31.456C5.86705 31.8764 6.08062 32.2968 6.28792 32.7109C7.90859 35.98 8.90738 39.1549 9.44761 42.2671C9.75541 42.2734 9.99411 42.2859 10.17 42.311L11.6588 42.5306H11.9603C12.1362 42.5557 12.2806 42.5683 12.4063 42.5683C13.2983 42.5683 14.2531 42.5118 15.2707 42.3988C16.0371 42.311 16.5522 42.2734 16.7972 42.2734C17.8399 42.2734 18.3613 42.6812 18.3613 43.5032C18.3613 44.3251 17.8902 44.733 16.9479 44.733C16.7972 44.733 16.5648 44.7079 16.2381 44.6577C15.9177 44.6075 15.679 44.5824 15.5283 44.5824C15.1828 44.5824 15.0069 44.7581 15.0069 45.1032C15.0069 45.304 15.0571 45.5487 15.1577 45.8498L19.4418 58.424L23.9834 46.0381C24.1091 45.693 24.1719 45.4169 24.1719 45.2224C24.1719 44.802 23.8829 44.5887 23.3176 44.5887C23.0223 44.5887 22.7836 44.6138 22.6077 44.664C22.212 44.7142 21.9482 44.7393 21.8288 44.7393C21.0122 44.7393 20.5976 44.344 20.5976 43.5471C20.5976 42.7063 21.1315 42.2796 22.1994 42.2796C22.3502 42.2796 22.5952 42.3047 22.9407 42.3549L24.2787 42.5432C24.6242 42.5934 25.0011 42.6185 25.3968 42.6185C25.8177 42.6185 26.4396 42.562 27.2625 42.449C28.0791 42.3361 28.701 42.2796 29.1218 42.2796C29.9887 42.2796 30.4975 42.562 30.6609 43.1141C30.8807 42.3236 31.1131 41.5267 31.3518 40.7235C33.3054 34.2231 35.5606 27.4905 35.8558 20.6575C35.9186 19.4215 35.8935 18.1916 35.793 16.9681Z" fill="white"/>
</svg>
