<svg width="110" height="117" viewBox="0 0 110 117" fill="none" xmlns="http://www.w3.org/2000/svg">
<g clip-path="url(#clip0_1233_67)">
<path d="M52.3661 12.139L52.1885 20.7038C53.3649 19.5915 54.4302 18.8203 55.3994 18.3976C56.3686 17.9749 57.508 17.7599 58.8323 17.7599C61.3552 17.7599 63.375 18.4791 64.9064 19.9177C66.4305 21.3563 67.1925 23.2472 67.1925 25.5905V32.9317C67.1925 34.6595 67.2073 35.6161 67.2369 35.7867C67.3553 37.2549 67.7326 37.9816 68.3763 37.9816C68.613 37.9816 68.946 37.9 69.3825 37.7369C69.56 37.6998 69.7894 37.6776 70.0853 37.6776C71.1655 37.6776 71.7056 38.1744 71.7056 39.1755C71.7056 40.1692 71.0027 40.6734 69.597 40.6734C69.2197 40.6734 68.6574 40.6289 67.9324 40.5399C66.7043 40.3916 65.7055 40.3175 64.9508 40.3175C64.1888 40.3175 63.6043 40.3471 63.1974 40.4065C61.9692 40.5844 61.2072 40.6734 60.9187 40.6734C60.3934 40.6734 59.9569 40.5177 59.6017 40.2136C59.2466 39.9022 59.0765 39.5166 59.0765 39.0494C59.0765 38.6712 59.2318 38.345 59.5352 38.0854C59.8385 37.8185 60.201 37.6924 60.6079 37.6924C60.9335 37.6924 61.3108 37.7666 61.7473 37.9149C62.0136 38.0039 62.2578 38.0484 62.4945 38.0484C63.375 38.0484 63.8263 37.0992 63.8559 35.1934C63.8559 34.8449 63.8854 34.1553 63.9446 33.1245V31.2336V28.8607C63.9446 25.8723 63.6487 23.8627 63.0642 22.8394C62.2134 21.3118 60.7115 20.5555 58.5734 20.5555C56.2577 20.5555 54.5634 21.3489 53.5128 22.9284C52.7804 24.011 52.3957 25.7536 52.3661 28.1636V31.33C52.3661 31.508 52.3069 31.7972 52.1885 32.2124V33.0504C52.1885 34.7188 52.2033 35.6903 52.2329 35.9498C52.3809 37.3884 52.8174 38.1003 53.5424 38.1003C53.7792 38.1003 54.1195 38.0335 54.556 37.9C54.9925 37.7666 55.3181 37.6998 55.5252 37.6998C56.487 37.6998 56.9679 38.167 56.9679 39.1013C56.9679 40.1617 56.3168 40.6882 55.0221 40.6882C54.6078 40.6882 53.9937 40.6437 53.1651 40.5548C52.0479 40.4361 51.0861 40.3768 50.2945 40.3768C49.7914 40.3768 49.1034 40.4213 48.2156 40.5103C47.0392 40.6289 46.2846 40.6882 45.9664 40.6882C44.7605 40.6882 44.1538 40.1469 44.1538 39.0568C44.1538 38.1522 44.7161 37.6998 45.8554 37.6998C46.2402 37.6998 46.5213 37.7443 46.7063 37.8259C47.2094 37.952 47.5719 38.0113 47.779 38.0113C48.2525 38.0113 48.5781 37.5664 48.7408 36.6691C48.9036 35.7718 48.9998 33.9476 49.0294 31.1965V23.2991C49.0294 18.9018 48.9406 16.1285 48.7704 14.9717C48.5929 13.8149 48.186 13.2365 47.5423 13.2365C47.3351 13.2365 47.0318 13.281 46.6175 13.3699C46.2106 13.4589 45.885 13.5034 45.6557 13.5034C44.6643 13.5034 44.1612 13.0363 44.1612 12.0945C44.1612 11.6867 44.3388 11.3307 44.6865 11.0415C45.0342 10.7523 45.4633 10.604 45.959 10.604C46.107 10.604 46.6027 10.6485 47.4535 10.7375C48.0084 10.7968 48.6077 10.8265 49.2513 10.8265C49.5177 10.8265 49.8802 10.7894 50.3463 10.7152C50.8124 10.6411 51.1527 10.604 51.3525 10.604C52.0258 10.604 52.3587 11.086 52.3587 12.0574V12.139H52.3661Z" fill="black"/>
<path d="M85.7034 32.3682V29.2463C85.0598 29.8321 84.3865 30.24 83.6689 30.4773C82.9512 30.7145 81.6787 30.9148 79.8439 31.0927C76.522 31.419 74.8647 32.6425 74.8647 34.7856C74.8647 35.8979 75.2642 36.7803 76.0707 37.4255C76.8771 38.0706 77.9647 38.3895 79.3408 38.3895C81.3014 38.3895 82.8402 37.8556 83.9648 36.7877C85.0968 35.7199 85.6738 34.2443 85.7034 32.3682ZM90.5716 41.1183C88.1745 41.1183 86.6948 40.0802 86.14 37.9965C84.6455 40.1914 82.3076 41.2963 79.1188 41.2963C76.7513 41.2963 74.8573 40.7105 73.4368 39.5389C72.0163 38.3672 71.3135 36.8026 71.3135 34.8375C71.3135 32.4053 72.3493 30.6181 74.4282 29.4762C75.2199 29.0387 75.9005 28.7495 76.4702 28.616C77.0399 28.4825 78.1866 28.3194 79.9105 28.1117C82.3667 27.8448 83.9648 27.4814 84.7121 27.0143C85.4593 26.5471 85.8292 25.6795 85.8292 24.4189C85.8292 23.2176 85.4149 22.2758 84.5789 21.5862C83.7429 20.8966 82.5813 20.5555 81.0942 20.5555C79.7773 20.5555 78.5491 20.9262 77.4098 21.6529C76.9733 21.9496 76.7513 22.2536 76.7513 22.5724C76.7513 22.6911 76.8845 22.8394 77.1434 23.01C77.5504 23.3066 77.7575 23.8034 77.7575 24.5079C77.7575 25.0937 77.543 25.5757 77.1213 25.9613C76.6995 26.3395 76.1669 26.5323 75.5232 26.5323C74.7612 26.5323 74.1249 26.2653 73.6144 25.7388C73.1039 25.2123 72.845 24.5672 72.845 23.8034C72.845 22.1646 73.6588 20.7557 75.279 19.584C76.8993 18.4124 78.8673 17.8266 81.1756 17.8266C86.4951 17.8266 89.1585 20.3849 89.1585 25.5015V34.3629C89.1585 35.7644 89.1881 36.6024 89.2473 36.8619C89.4249 37.8852 89.9206 38.3969 90.7418 38.3969C91.7628 38.3969 92.2733 37.4625 92.2733 35.6013V33.4657C92.2733 32.5313 92.7172 32.0716 93.6124 32.0716C94.5594 32.0716 95.0403 32.776 95.0403 34.1775V34.4V36.9064C94.9885 39.7094 93.494 41.1183 90.5716 41.1183Z" fill="black"/>
<path d="M106.885 34.4445V31.634C106.915 30.4327 107.44 29.8321 108.461 29.8321C109.482 29.8321 110 30.5069 110 31.8565C110 35.0525 109.593 37.2771 108.779 38.5378C107.677 40.2359 105.864 41.0887 103.334 41.0887C101.011 41.0887 99.3536 40.3397 98.3696 38.8492C97.6446 37.7666 97.2821 35.9201 97.2821 33.3099V22.7504C97.2821 22.1349 97.0009 21.8235 96.4312 21.8235H94.9959C94.515 21.8235 94.1229 21.6678 93.8048 21.3637C93.4941 21.0523 93.3313 20.6815 93.3313 20.244C93.3313 19.8362 93.4867 19.4654 93.79 19.1465C94.1007 18.8202 94.4411 18.6645 94.8184 18.6645H96.5274C97.0231 18.6645 97.2747 18.3827 97.2747 17.8266V13.2958C97.2747 12.1835 97.8443 11.6273 98.9837 11.6273C100.034 11.6273 100.56 12.1835 100.56 13.2958V17.9971C100.56 18.4346 100.826 18.6571 101.351 18.6571H106.131C107.24 18.6571 107.795 19.1688 107.795 20.1921C107.795 21.2747 107.196 21.8161 105.997 21.8161H101.174C100.767 21.8161 100.56 22.1275 100.56 22.743V33.5546C100.56 36.632 101.581 38.167 103.63 38.167C105.716 38.1818 106.796 36.936 106.885 34.4445Z" fill="black"/>
<path d="M48.8148 52.1153C46.7655 52.1153 45.16 52.8346 43.991 54.2658C42.8221 55.7044 42.1784 57.7362 42.06 60.3761V60.9471C42.06 63.6982 42.6371 65.8635 43.7913 67.4355C44.9454 69.0002 46.5583 69.7862 48.6373 69.7862C50.768 69.7862 52.4475 69.0002 53.6608 67.4355C54.8741 65.8709 55.4808 63.6907 55.4808 60.91C55.4808 55.0444 53.2613 52.1153 48.8148 52.1153ZM48.6003 72.6856C45.5299 72.6856 43.0736 71.6252 41.2314 69.497C39.3892 67.3688 38.4718 64.5213 38.4718 60.9471C38.4718 57.3728 39.3966 54.5253 41.2536 52.3971C43.1106 50.2763 45.6039 49.2085 48.7334 49.2085C51.9222 49.2085 54.4376 50.2466 56.2798 52.3304C58.1221 54.4141 59.0395 57.2394 59.0395 60.8136C59.0395 64.3878 58.0925 67.265 56.1911 69.4303C54.2823 71.603 51.752 72.6856 48.6003 72.6856Z" fill="black"/>
<path d="M78.6453 70.8021V69.4377C77.0917 71.5807 74.7981 72.6485 71.7574 72.6485C68.3097 72.6485 65.9052 71.5807 64.5661 69.4377C63.9816 68.5033 63.6635 67.3985 63.6043 66.1378C63.5747 65.5224 63.5599 64.2321 63.5599 62.267V58.6186C63.5599 54.6069 63.1308 52.5973 62.2726 52.5973C62.095 52.5973 61.8139 52.6196 61.4292 52.6641C61.0444 52.7086 60.7485 52.7308 60.5413 52.7308C59.5056 52.7308 58.9877 52.2562 58.9877 51.2996C58.9877 50.3727 59.6165 49.913 60.8743 49.913C61.1628 49.913 61.5993 49.95 62.169 50.0242C62.7387 50.0983 63.1678 50.1354 63.4637 50.1354C63.7301 50.1354 64.1814 50.0909 64.825 50.002C65.2615 49.9426 65.5131 49.913 65.5723 49.913C66.4749 49.913 66.9336 50.4691 66.9336 51.5814V52.5083V55.3633L66.8004 58.6186V61.4736C66.8004 64.0245 67.0076 65.856 67.4145 66.9684C68.0878 68.8148 69.6932 69.7417 72.2383 69.7417C73.496 69.7417 74.6058 69.4525 75.575 68.8815C76.5368 68.3105 77.21 67.5542 77.5947 66.6198C78.0608 65.4779 78.2976 63.3052 78.2976 60.1091V57.6917V54.8368C78.1496 53.4279 77.7723 52.7308 77.1582 52.7308H76.3666H75.8413C74.8203 52.7308 74.3098 52.2933 74.3098 51.4109C74.3098 50.4172 74.8795 49.9204 76.0189 49.9204C76.2852 49.9204 76.6847 49.95 77.2248 50.0094C77.7649 50.0687 78.1644 50.0983 78.4308 50.0983C78.6675 50.0983 79.0152 50.0687 79.4813 50.0094C79.9474 49.95 80.3026 49.9204 80.5319 49.9204C81.4123 49.9204 81.8488 50.3876 81.8488 51.3293C81.8488 51.7372 81.8193 52.0634 81.7601 52.3007C81.6121 53.4204 81.5381 55.0592 81.5381 57.2394V64.0244C81.5381 65.819 81.5529 66.8126 81.5825 67.0203C81.7305 68.5775 82.1374 69.3561 82.8106 69.3561C83.0178 69.3561 83.3063 69.319 83.6911 69.2449C84.0684 69.1707 84.3643 69.1337 84.5715 69.1337C85.5629 69.1337 86.066 69.6157 86.066 70.5871C86.066 71.5807 85.4519 72.085 84.2237 72.085C83.9574 72.085 83.5801 72.0553 83.0844 71.996C82.3519 71.907 81.9006 71.8625 81.7231 71.8625C81.6343 71.8625 81.331 71.8922 80.7983 71.9515C80.4505 72.0405 80.1398 72.085 79.8809 72.085C79.0522 72.0776 78.6453 71.6475 78.6453 70.8021Z" fill="black"/>
<path d="M41.9787 92.5515C41.9787 92.9593 42.2968 93.1669 42.9405 93.1669H53.4241C54.0381 93.1669 54.3415 92.9593 54.3415 92.5515C54.3415 91.0016 53.757 89.652 52.588 88.5101C51.4191 87.3681 50.043 86.7971 48.4671 86.7971C46.8321 86.7971 45.3376 87.3904 43.9911 88.5768C42.6519 89.7633 41.9787 91.0906 41.9787 92.5515ZM57.9001 93.6934C57.9001 94.8057 57.8261 95.488 57.6782 95.7401C57.5302 95.9922 57.1085 96.1109 56.4056 96.1109H42.4596C42.0823 96.1109 41.8307 96.1628 41.7123 96.2666C41.594 96.3704 41.5348 96.5409 41.5348 96.7708C41.5348 98.9658 42.1932 100.797 43.5102 102.266C44.8271 103.734 46.4621 104.468 48.4227 104.468C49.71 104.468 50.8864 104.112 51.9518 103.415C53.0172 102.711 53.7126 101.821 54.0381 100.731L54.4303 99.4552C54.6374 98.7507 55.1183 98.4022 55.8803 98.4022C56.9605 98.4022 57.5006 98.9584 57.5006 100.071C57.5006 101.976 56.5388 103.667 54.6078 105.15C52.6768 106.633 50.4869 107.375 48.0306 107.375C44.9602 107.375 42.5188 106.344 40.7061 104.275C38.8935 102.206 37.9835 99.4329 37.9835 95.9477C37.9835 92.3735 38.9453 89.4741 40.8763 87.242C42.8073 85.0174 45.3228 83.8977 48.4227 83.8977C51.1675 83.8977 53.4389 84.8172 55.2219 86.6636C57.0123 88.5101 57.9001 90.8533 57.9001 93.6934Z" fill="black"/>
<path d="M63.3824 92.5515C63.3824 92.9593 63.7005 93.1669 64.3442 93.1669H74.8278C75.4419 93.1669 75.7526 92.9593 75.7526 92.5515C75.7526 91.0016 75.1681 89.652 73.9992 88.5101C72.8302 87.3681 71.4541 86.7971 69.8782 86.7971C68.2432 86.7971 66.7487 87.3904 65.4022 88.5768C64.0557 89.7633 63.3824 91.0906 63.3824 92.5515ZM79.3039 93.6934C79.3039 94.8057 79.2299 95.488 79.0819 95.7401C78.9339 95.9922 78.5122 96.1109 77.8094 96.1109H63.8707C63.4934 96.1109 63.2418 96.1628 63.1235 96.2666C63.0051 96.3704 62.9459 96.5409 62.9459 96.7708C62.9459 98.9658 63.6044 100.797 64.9213 102.266C66.2382 103.734 67.8733 104.468 69.8339 104.468C71.1212 104.468 72.2975 104.112 73.3629 103.415C74.4283 102.711 75.1237 101.821 75.4493 100.731L75.8414 99.4552C76.0485 98.7507 76.5294 98.4022 77.2915 98.4022C78.3717 98.4022 78.9117 98.9584 78.9117 100.071C78.9117 101.976 77.9425 103.667 76.019 105.15C74.088 106.633 71.898 107.375 69.4417 107.375C66.3714 107.375 63.9299 106.344 62.1173 104.275C60.3047 102.206 59.3947 99.4329 59.3947 95.9477C59.3947 92.3735 60.3565 89.4741 62.2874 87.242C64.2184 85.0174 66.7339 83.8977 69.8339 83.8977C72.5787 83.8977 74.85 84.8172 76.633 86.6636C78.416 88.5101 79.3039 90.8533 79.3039 93.6934Z" fill="black"/>
<path d="M96.9417 99.4181C97.0601 98.4467 97.1193 97.2083 97.1193 95.6808C97.1193 93.7157 97.0453 92.3809 96.8973 91.6764C96.631 90.2082 96.0021 89.0662 94.9959 88.2431C93.8195 87.2791 92.4656 86.7897 90.9342 86.7897C88.87 86.7897 87.2571 87.5683 86.0956 89.1181C84.934 90.6754 84.3495 92.7962 84.3495 95.4954C84.3495 98.2761 84.9488 100.471 86.1622 102.065C87.3681 103.66 89.018 104.461 91.1117 104.461C92.7024 104.461 94.0267 104.001 95.0847 103.074C96.1427 102.169 96.7641 100.946 96.9417 99.4181ZM90.6234 83.8977C93.5162 83.8977 95.684 85.0248 97.1119 87.2865V82.8447C97.1119 81.6731 97.0823 80.9538 97.0231 80.6943C96.8751 79.7822 96.4682 79.3298 95.7949 79.3298C95.5582 79.3298 95.2326 79.3743 94.8109 79.4633C94.3892 79.5523 94.0563 79.5968 93.8269 79.5968C92.7468 79.5968 92.2067 79.1296 92.2067 78.1879C92.2067 77.2239 92.9391 76.7344 94.3966 76.7344C94.6334 76.7344 95.0551 76.7641 95.6692 76.8234C96.6014 76.9124 97.0897 76.9569 97.1193 76.9569C97.3856 76.9569 97.7629 76.9198 98.2586 76.8457C98.7543 76.7715 99.139 76.7344 99.398 76.7344C100.219 76.7344 100.626 77.3202 100.626 78.4993V78.9813C100.597 79.0703 100.567 79.8489 100.537 81.3171C100.537 81.4951 100.493 82.6223 100.404 84.706C100.345 86.1742 100.315 87.2865 100.315 88.0503V92.3661V99.7221C100.345 101.658 100.434 102.866 100.582 103.333C100.73 103.801 101.085 104.038 101.654 104.038C102.039 104.038 102.343 104.008 102.55 103.949C103.023 103.89 103.356 103.86 103.534 103.86C104.636 103.86 105.184 104.342 105.184 105.313C105.184 106.307 104.525 106.811 103.208 106.811C102.912 106.811 102.468 106.774 101.869 106.7C101.27 106.626 100.826 106.589 100.53 106.589C100.441 106.589 100.108 106.618 99.5238 106.678C99.176 106.767 98.8653 106.811 98.6063 106.811C97.8147 106.811 97.4226 106.285 97.4226 105.232V105.009V104.26C95.8763 106.344 93.6346 107.382 90.6826 107.382C87.7084 107.382 85.3187 106.3 83.5061 104.127C81.7009 101.962 80.7909 99.1141 80.7909 95.5992C80.7909 92.0546 81.6861 89.2219 83.4691 87.0937C85.2596 84.9655 87.6418 83.8977 90.6234 83.8977Z" fill="black"/>
<path d="M33.9957 106.396C33.6479 106.685 33.2188 106.833 32.7231 106.833C32.3162 106.833 31.643 106.774 30.7034 106.656C29.7712 106.537 28.8907 106.478 28.0695 106.478C27.3075 106.478 26.6786 106.507 26.1829 106.567C24.718 106.744 23.9486 106.826 23.8598 106.826C22.6909 106.826 22.1064 106.314 22.1064 105.291C22.1064 104.386 22.6095 103.927 23.6305 103.927C23.8672 103.927 24.1335 103.956 24.4369 104.016C24.9992 104.134 25.3617 104.194 25.5097 104.194C26.2273 104.194 26.612 103.385 26.6712 101.776V99.5367V96.8524V93.5154C26.6712 91.9582 26.5972 90.8904 26.4493 90.3046C26.1903 89.1923 25.6206 88.3247 24.7476 87.7092C23.7858 87.0344 22.6909 86.7007 21.4701 86.7007C19.1396 86.7007 17.4676 87.5386 16.4466 89.2071C15.7511 90.3491 15.396 92.2993 15.396 95.0578V100.909C15.396 102.199 15.4848 103.074 15.6549 103.548C15.8325 104.016 16.1506 104.253 16.6167 104.253C16.8535 104.253 17.1716 104.201 17.5785 104.097C17.9854 103.993 18.3258 103.941 18.5847 103.941C19.4873 103.941 19.946 104.431 19.946 105.417C19.946 106.374 19.3616 106.848 18.1926 106.848C17.9558 106.848 17.2012 106.759 15.9139 106.589C15.2702 106.5 14.5526 106.455 13.7609 106.455C13.1469 106.455 12.3256 106.515 11.3047 106.633C10.0173 106.782 9.28488 106.856 9.11471 106.856C7.88657 106.856 7.2725 106.359 7.2725 105.358C7.2725 104.423 7.746 103.949 8.7004 103.949C8.84837 103.949 9.12211 103.993 9.52903 104.082C9.92854 104.171 10.3281 104.216 10.7128 104.216C11.608 104.216 12.0667 103.363 12.0963 101.665V96.7856V91.4688V89.9338C12.0371 88.9401 11.9113 88.2579 11.719 87.8872C11.5266 87.5238 11.1863 87.3384 10.7128 87.3384C10.5056 87.3384 10.2023 87.3755 9.79537 87.4496C9.39585 87.5238 9.08512 87.5609 8.87796 87.5609C7.80519 87.5609 7.2725 87.0937 7.2725 86.152C7.2725 85.188 7.93096 84.6985 9.24788 84.6985C9.42545 84.6985 9.56602 84.7134 9.68439 84.743L11.3047 84.921C11.7708 84.921 12.1851 84.8839 12.5328 84.8098C13.2948 84.7356 13.6869 84.6985 13.7165 84.6985C14.5674 84.6985 14.9891 85.1435 14.9891 86.0407V87.2939C16.7425 85.0693 19.0804 83.9496 22.0102 83.9496C23.5861 83.9496 25.0805 84.35 26.4862 85.1583C27.892 85.9666 28.839 86.9676 29.3347 88.1689C29.7416 89.17 29.9487 90.4677 29.9487 92.0843V100.434C29.9487 101.695 29.9635 102.444 29.9931 102.673C30.1411 103.675 30.5332 104.171 31.1769 104.171C31.4358 104.171 31.7835 104.134 32.2052 104.06C32.627 103.986 32.9303 103.949 33.1079 103.949C33.4852 103.949 33.8181 104.082 34.0918 104.342C34.373 104.609 34.5062 104.928 34.5062 105.306C34.521 105.736 34.3508 106.107 33.9957 106.396ZM35.6603 52.6196C35.431 52.7679 35.1276 52.8494 34.7429 52.8494C34.447 52.8494 34.2324 52.8198 34.0844 52.7605C33.7071 52.6715 33.4408 52.627 33.2928 52.627C32.7379 52.627 32.1683 53.3759 31.5838 54.8664L25.6206 69.8159C24.3037 73.1305 23.0608 75.5331 21.8918 77.0236C19.9016 79.5745 17.4158 80.85 14.4342 80.85C12.6512 80.85 11.1493 80.3976 9.93594 79.4855C9.07772 78.8404 8.52284 78.0988 8.27869 77.2609C6.36249 84.0831 4.09117 91.009 2.69287 98.3132C0.96903 107.345 5.4007 113.856 14.1826 116.118C18.4663 117.215 22.972 117.163 27.3519 116.592C30.0597 116.236 31.7613 115.561 33.9587 113.937C38.8342 110.334 36.9254 103.652 35.4088 98.8249C30.1263 82.0438 31.4432 68.6146 35.6603 52.6196Z" fill="black"/>
<path d="M12.6365 73.6941C13.073 74.0871 13.2949 74.584 13.2949 75.1698C13.2949 76.1041 12.8732 76.7122 12.0224 76.9717C12.4589 77.6169 13.2949 77.9357 14.5231 77.9357C16.0693 77.9357 17.4676 77.3573 18.7106 76.2005C19.9535 75.0437 20.575 73.746 20.575 72.3075C20.575 71.5733 20.1829 70.2163 19.3912 68.2216L14.5675 56.001L14.0422 54.5921C13.5465 53.2722 12.9768 52.6122 12.3331 52.6122C12.1778 52.6122 11.8966 52.6418 11.5119 52.7086C12.2369 59.8274 11.0458 66.7088 9.25537 73.6496C9.72887 73.2863 10.2986 73.1009 10.9718 73.1009C11.6451 73.0935 12.1999 73.2937 12.6365 73.6941Z" fill="black"/>
<path d="M42.1563 20.0434C42.1489 21.0074 41.668 21.4894 40.7136 21.4894C40.388 21.4894 40.1439 21.4375 39.9663 21.3337C39.5002 21.2299 39.2339 21.178 39.1747 21.178C38.3831 21.178 37.5618 22.8168 36.7184 26.087L33.7368 37.477C33.3891 38.8637 32.9748 39.8277 32.5087 40.3764C32.0426 40.9252 31.3989 41.1921 30.5777 41.1921C29.0314 41.1921 27.9882 39.9612 27.463 37.4992L24.1706 21.8528L20.7526 37.2026C20.427 38.6635 20.0201 39.6942 19.5244 40.2948C19.0287 40.8955 18.3555 41.1921 17.5047 41.1921C16.1285 41.1921 15.2111 40.28 14.745 38.4632L10.5353 22.6017C10.269 21.66 9.86207 21.1928 9.30718 21.1928C9.12962 21.1928 8.87068 21.2521 8.51555 21.3782C8.04945 21.4598 7.72392 21.4968 7.55375 21.4968C6.59196 21.4968 6.10366 21.0222 6.10366 20.0657C6.10366 19.0275 6.76212 18.501 8.07904 18.501C8.31579 18.501 8.47116 18.5158 8.55994 18.5529L10.4465 18.8495C10.8535 18.9163 11.3935 18.9459 12.0668 18.9459C12.888 18.9459 13.8202 18.8792 14.8708 18.7531C16.1877 18.59 16.9498 18.5084 17.1495 18.5084C18.4369 18.5084 19.0805 19.0127 19.0805 20.0286C19.0805 21.0148 18.5404 21.4968 17.4603 21.4968C17.2531 21.4968 16.8906 21.4598 16.3653 21.393C15.988 21.2595 15.6181 21.1854 15.2703 21.1854C14.5083 21.1854 14.131 21.6229 14.131 22.5053C14.131 23.0911 14.2345 23.8104 14.4343 24.6632L17.6378 38.0628L21.0559 22.5869C21.411 20.9481 21.7957 19.8506 22.2175 19.3093C22.6392 18.768 23.2902 18.4936 24.1706 18.4936C25.0733 18.4936 25.7391 18.7754 26.1682 19.3315C26.5899 19.8877 26.9821 20.9703 27.3298 22.5869L30.6221 38.0628L33.87 24.6632C34.0772 23.8104 34.1733 23.0763 34.1733 22.4608V22.3719C34.1733 21.5784 33.8404 21.1854 33.1672 21.1854C32.9082 21.1854 32.5235 21.2373 32.0278 21.3411C31.5321 21.4449 31.1548 21.4968 30.8884 21.4968C29.8083 21.4968 29.2682 21.0148 29.2682 20.0434C29.2682 19.0201 29.9858 18.5084 31.4137 18.5084C31.6209 18.5084 31.8354 18.5233 32.0722 18.5603L33.87 18.805C34.3361 18.8718 35.0686 18.9014 36.0673 18.9014C36.859 18.9014 37.6136 18.8495 38.3461 18.7531L39.7962 18.5529C39.9145 18.5233 40.0773 18.501 40.2771 18.501C41.3572 18.501 41.9713 18.8792 42.1267 19.6282C41.7567 15.8611 40.7062 12.1757 38.716 8.97224C33.0932 -0.0967767 20.3605 -2.05444 11.0828 2.00178C6.61415 3.96686 2.64859 7.45209 0.976539 12.0348C-2.1382 20.5773 2.86314 29.7279 6.65854 37.1656C6.91009 37.6624 7.16164 38.1592 7.40578 38.6486C9.31458 42.512 10.4909 46.2642 11.1272 49.9423C11.4897 49.9497 11.7709 49.9645 11.978 49.9942L13.7315 50.2537H14.0866C14.2937 50.2834 14.4639 50.2982 14.6119 50.2982C15.6624 50.2982 16.787 50.2315 17.9856 50.098C18.8882 49.9942 19.4948 49.9497 19.7834 49.9497C21.0115 49.9497 21.6256 50.4317 21.6256 51.4031C21.6256 52.3745 21.0707 52.8565 19.9609 52.8565C19.7834 52.8565 19.5096 52.8269 19.1249 52.7675C18.7476 52.7082 18.4665 52.6785 18.2889 52.6785C17.882 52.6785 17.6748 52.8862 17.6748 53.294C17.6748 53.5313 17.734 53.8205 17.8524 54.1764L22.8981 69.0369L28.2472 54.3989C28.3952 53.9911 28.4691 53.6648 28.4691 53.4349C28.4691 52.9381 28.1288 52.686 27.463 52.686C27.1152 52.686 26.8341 52.7156 26.6269 52.7749C26.1608 52.8343 25.8501 52.8639 25.7095 52.8639C24.7477 52.8639 24.2594 52.3968 24.2594 51.455C24.2594 50.4613 24.8883 49.9571 26.146 49.9571C26.3236 49.9571 26.6121 49.9868 27.019 50.0461L28.5949 50.2685C29.0018 50.3279 29.4457 50.3575 29.9118 50.3575C30.4075 50.3575 31.14 50.2908 32.1092 50.1573C33.071 50.0238 33.8034 49.9571 34.2991 49.9571C35.3201 49.9571 35.9194 50.2908 36.1117 50.9433C36.3707 50.009 36.6444 49.0672 36.9256 48.1181C39.2265 40.4357 41.8825 32.479 42.2302 24.4037C42.3042 22.9428 42.2746 21.4894 42.1563 20.0434Z" fill="black"/>
</g>
<defs>
<clipPath id="clip0_1233_67">
<rect width="110" height="117" fill="white"/>
</clipPath>
</defs>
</svg>
